<svg xmlns="http://www.w3.org/2000/svg" width="21.125" height="19.365"><g fill="#fff"><path data-name="Caminho 9570" d="M6.6 3.302a3.3 3.3 0 1 1-3.3-3.3 3.3 3.3 0 0 1 3.3 3.3zm-5.281 0A1.98 1.98 0 1 0 3.3 1.321a1.983 1.983 0 0 0-1.98 1.981zm0 0"/><path data-name="Caminho 9571" d="M21.124 3.302a3.3 3.3 0 1 1-3.3-3.3 3.3 3.3 0 0 1 3.3 3.3zm-5.281 0a1.98 1.98 0 1 0 1.981-1.981 1.983 1.983 0 0 0-1.98 1.981zm0 0"/><path data-name="Caminho 9572" d="M13.862 16.065a3.3 3.3 0 1 1-3.3-3.3 3.3 3.3 0 0 1 3.3 3.3zm-5.281 0a1.98 1.98 0 1 0 1.981-1.981 1.983 1.983 0 0 0-1.98 1.981zm0 0"/><path data-name="Caminho 9573" d="M9.92 13.766a.66.66 0 0 1-1.233.328L4.031 5.927a.66.66 0 0 1 1.147-.653l4.656 8.167a.661.661 0 0 1 .086.326zm0 0"/><path data-name="Caminho 9574" d="M17.182 5.6a.654.654 0 0 1-.087.326l-4.657 8.167a.66.66 0 0 1-1.147-.653l4.657-8.168a.66.66 0 0 1 1.234.327zm0 0"/></g></svg>