<svg xmlns="http://www.w3.org/2000/svg" width="41.999" height="42"><g data-name="Grupo 2636"><path data-name="Caminho 6036" d="M35.849 6.151A21 21 0 1 0 42 21a20.861 20.861 0 0 0-6.151-14.849zm-.928 28.767a19.688 19.688 0 1 1 5.766-13.922 19.558 19.558 0 0 1-5.766 13.922z"/><path data-name="Caminho 6037" d="M26.716 30.601h4.067a.656.656 0 0 0 .656-.656V22.93a6.571 6.571 0 0 0-1.513-4.607 5.043 5.043 0 0 0-3.827-1.554 4.71 4.71 0 0 0-3.009.954v-.011a.656.656 0 0 0-.656-.656h-4.06a.657.657 0 0 0-.656.686c.051 1.117 0 12.089 0 12.2a.656.656 0 0 0 .656.659h4.065a.656.656 0 0 0 .656-.656v-6.832a2.2 2.2 0 0 1 .086-.746 1.6 1.6 0 0 1 1.478-1.078c.384 0 1.4 0 1.4 2.111v6.545a.656.656 0 0 0 .657.656zm-2.061-10.625a2.862 2.862 0 0 0-2.693 1.9 3.235 3.235 0 0 0-.183 1.241v6.176h-2.75c.009-2.121.034-8.651.01-10.92h2.74v1.076a.656.656 0 0 0 1.207.357 3.372 3.372 0 0 1 3.114-1.72c2.559 0 4.027 1.767 4.027 4.849v6.358h-2.753v-5.889a4.174 4.174 0 0 0-.592-2.37 2.444 2.444 0 0 0-2.126-1.058z"/><path data-name="Caminho 6038" d="M17.041 13.913a2.948 2.948 0 1 0-2.983 2.784h.024a2.773 2.773 0 0 0 2.956-2.77zm-2.959 1.471h-.027a1.446 1.446 0 0 1-1.589-1.458 1.475 1.475 0 0 1 1.643-1.458 1.456 1.456 0 0 1 1.618 1.465 1.476 1.476 0 0 1-1.645 1.451z"/><path data-name="Caminho 6039" d="M12.052 17.056a.656.656 0 0 0-.656.656v12.233a.656.656 0 0 0 .656.656h4.068a.656.656 0 0 0 .656-.656V17.712a.656.656 0 0 0-.656-.656zm3.412 12.233H12.71v-10.92h2.756z"/></g></svg>