<svg xmlns="http://www.w3.org/2000/svg" width="41.846" height="41.846"><g data-name="Grupo 9434"><path data-name="Caminho 8710" d="M35.718 6.128a20.924 20.924 0 1 0 6.128 14.79 20.785 20.785 0 0 0-6.128-14.79zm-.925 28.665a19.616 19.616 0 1 1 5.745-13.875 19.488 19.488 0 0 1-5.745 13.876z"/></g><g data-name="Grupo 9435"><path data-name="Caminho 8711" d="M31.097 26.452l-4.285-2.858a1.52 1.52 0 0 0-2.026.33l-1.25 1.607a.273.273 0 0 1-.349.073l-.238-.131a19.672 19.672 0 0 1-6.572-6.572l-.132-.24a.274.274 0 0 1 .074-.352l1.6-1.248a1.521 1.521 0 0 0 .329-2.026l-2.857-4.284a1.5 1.5 0 0 0-2.03-.457l-1.79 1.075a2.776 2.776 0 0 0-1.272 1.652c-.664 2.418-.182 6.573 5.884 12.64 4.054 4.054 7.725 6.109 10.91 6.109h.028a6.511 6.511 0 0 0 1.7-.226 2.772 2.772 0 0 0 1.649-1.27l1.077-1.79a1.5 1.5 0 0 0-.45-2.032zm-13.931-10.36l-1.6 1.246a1.5 1.5 0 0 0-.4 1.919l.127.231a20.842 20.842 0 0 0 7.063 7.063l.23.127a1.5 1.5 0 0 0 1.919-.394l1.247-1.6a.283.283 0 0 1 .376-.061l4.285 2.858a.277.277 0 0 1 .084.375l-1.077 1.795a1.556 1.556 0 0 1-.92.714c-2.1.577-5.8.081-11.445-5.568s-6.146-9.342-5.569-11.443a1.56 1.56 0 0 1 .718-.925l1.792-1.075a.278.278 0 0 1 .375.085l2.854 4.284a.283.283 0 0 1-.059.369z"/><path data-name="Caminho 8712" d="M22.335 13.607a5.752 5.752 0 0 1 5.736 5.736.615.615 0 1 0 1.229 0 6.983 6.983 0 0 0-6.964-6.964.615.615 0 0 0 0 1.229z"/><path data-name="Caminho 8713" d="M22.335 15.721a3.629 3.629 0 0 1 3.619 3.619.615.615 0 1 0 1.229 0 4.861 4.861 0 0 0-4.848-4.847.615.615 0 0 0 0 1.229z"/><path data-name="Caminho 8714" d="M22.335 17.84a1.507 1.507 0 0 1 1.5 1.5.615.615 0 1 0 1.229 0 2.738 2.738 0 0 0-2.731-2.731.615.615 0 0 0 0 1.229z"/></g></svg>