<svg xmlns="http://www.w3.org/2000/svg" width="40.907" height="40.908"><g data-name="Grupo 2635"><path data-name="Caminho 6033" d="M34.913 5.991a20.456 20.456 0 1 0 5.991 14.463 20.319 20.319 0 0 0-5.991-14.463zm-.9 28.023a19.177 19.177 0 1 1 5.616-13.56 19.05 19.05 0 0 1-5.616 13.56z"/><path data-name="Caminho 6034" d="M31.464 15.917a5.511 5.511 0 0 0-1-2.576 3.432 3.432 0 0 0-2.387-1.141l-.116-.013h-.029c-2.937-.227-7.369-.23-7.414-.23h-.01c-.044 0-4.477 0-7.413.23h-.029l-.117.013a3.433 3.433 0 0 0-2.387 1.141 5.511 5.511 0 0 0-1 2.576v.011a36.349 36.349 0 0 0-.215 3.707v1.7a36.341 36.341 0 0 0 .215 3.708v.01a5.5 5.5 0 0 0 1 2.575 3.664 3.664 0 0 0 2.426 1.121c.1.013.184.024.242.035.02 0 .04.007.06.009 1.694.173 6.991.227 7.223.229.045 0 4.481-.011 7.417-.235h.032l.12-.013a3.441 3.441 0 0 0 2.38-1.142 5.506 5.506 0 0 0 1-2.574v-.011a36.392 36.392 0 0 0 .215-3.708v-1.7a36.4 36.4 0 0 0-.215-3.708zm-1.062 5.421c0 1.71-.193 3.447-.206 3.556a4.356 4.356 0 0 1-.671 1.872l-.007.008a2.185 2.185 0 0 1-1.564.727l-.133.015c-2.888.22-7.262.231-7.3.231-.054 0-5.4-.054-7.071-.22a4.909 4.909 0 0 0-.3-.043 2.429 2.429 0 0 1-1.641-.71l-.007-.008a4.252 4.252 0 0 1-.67-1.873 35.597 35.597 0 0 1-.206-3.555v-1.7c0-1.71.194-3.447.206-3.555a4.364 4.364 0 0 1 .671-1.875l.007-.007a2.179 2.179 0 0 1 1.567-.726l.129-.014c2.887-.223 7.257-.225 7.3-.225h.01c.044 0 4.414 0 7.3.225l.129.014a2.177 2.177 0 0 1 1.567.726l.007.008a4.26 4.26 0 0 1 .671 1.875c.013.111.206 1.847.206 3.555z"/><path data-name="Caminho 6035" d="M24.796 19.941l-6.58-3.948a.639.639 0 0 0-.968.548v7.9a.639.639 0 0 0 .968.548l6.58-3.948a.639.639 0 0 0 0-1.1zm-6.27 3.368V17.67l4.7 2.819z"/></g></svg>