<svg xmlns="http://www.w3.org/2000/svg" width="40.82" height="40.819"><path data-name="Caminho 8715" d="M35.027 5.793A19.78 19.78 0 0 0 1.261 19.779a19.857 19.857 0 0 0 2.2 9.072l.1.2-3.487 9.962a1.357 1.357 0 0 0 1.729 1.729l9.963-3.487.2.1a19.859 19.859 0 0 0 9.072 2.2A19.78 19.78 0 0 0 35.024 5.789zm-1 26.977A18.378 18.378 0 0 1 12.418 36a1.365 1.365 0 0 0-1.089-.085l-9.884 3.459 3.459-9.883a1.367 1.367 0 0 0-.085-1.09 18.372 18.372 0 1 1 29.214 4.367z"/><path data-name="Caminho 8716" d="M28.216 21.963a1.874 1.874 0 0 0-2.648 0l-1.3 1.3-.344-.187a15.44 15.44 0 0 1-6.181-6.18l-.187-.344 1.3-1.3a1.875 1.875 0 0 0 0-2.648l-2.753-2.753a1.875 1.875 0 0 0-2.648 0l-2.2 2.2c-1.1 1.1-1.123 3.064-.067 5.53A26.287 26.287 0 0 0 23.237 29.63a8.364 8.364 0 0 0 3.221.775 3.134 3.134 0 0 0 2.309-.841l2.2-2.2a1.872 1.872 0 0 0 0-2.647zm-.446 6.607a1.816 1.816 0 0 1-1.317.429 7.083 7.083 0 0 1-2.661-.661 24.918 24.918 0 0 1-11.309-11.309c-.791-1.846-.878-3.333-.233-3.979l2.53-2.53 3.408 3.409-1.649 1.649a1.352 1.352 0 0 0-.251 1.574 16.8 16.8 0 0 0 7.38 7.38 1.352 1.352 0 0 0 1.575-.251l1.649-1.649L30.3 26.04z"/></svg>