<svg xmlns="http://www.w3.org/2000/svg" width="41.999" height="42"><g data-name="Grupo 2640"><path data-name="Caminho 6044" d="M18.284 31.829h4.224a.656.656 0 0 0 .656-.656V21.66h2.194a.656.656 0 0 0 .653-.589l.37-3.591a.656.656 0 0 0-.653-.724h-2.561v-1.454c0-.3.1-.323.24-.323h2.271a.656.656 0 0 0 .656-.656v-3.487a.656.656 0 0 0-.654-.656l-3.132-.013a4.62 4.62 0 0 0-3.962 1.775 5.4 5.4 0 0 0-.956 3.145v1.673h-1.353a.656.656 0 0 0-.656.656v3.591a.656.656 0 0 0 .656.656h1.353v9.508a.656.656 0 0 0 .654.658zm-1.353-11.477v-2.278h1.353a.656.656 0 0 0 .656-.656v-2.324a4.162 4.162 0 0 1 .7-2.367 3.377 3.377 0 0 1 2.9-1.241l2.476.01v2.176h-1.615a1.51 1.51 0 0 0-1.553 1.635v2.111a.656.656 0 0 0 .656.656h2.494l-.235 2.278h-2.259a.656.656 0 0 0-.656.656v9.508h-2.911v-9.508a.656.656 0 0 0-.656-.656z"/><path data-name="Caminho 6045" d="M35.849 6.151A21 21 0 1 0 42 21a20.861 20.861 0 0 0-6.151-14.849zm-.931 28.767a19.689 19.689 0 1 1 5.766-13.922 19.559 19.559 0 0 1-5.766 13.922z"/></g></svg>