<svg xmlns="http://www.w3.org/2000/svg" width="41.797" height="41.797"><g data-name="Grupo 2639"><g data-name="Grupo 2637"><path data-name="Caminho 6040" d="M35.676 6.118a20.9 20.9 0 1 0 6.121 14.778 20.761 20.761 0 0 0-6.121-14.778zm-.923 28.632a19.593 19.593 0 1 1 5.738-13.854 19.463 19.463 0 0 1-5.738 13.854z"/></g><g data-name="Grupo 2638"><path data-name="Caminho 6041" d="M26.387 10.421H15.45a5.035 5.035 0 0 0-5.029 5.029v10.937a5.035 5.035 0 0 0 5.029 5.029h10.937a5.035 5.035 0 0 0 5.029-5.029V15.45a5.035 5.035 0 0 0-5.029-5.029zm3.705 15.966a3.709 3.709 0 0 1-3.705 3.705H15.45a3.709 3.709 0 0 1-3.7-3.705V15.45a3.709 3.709 0 0 1 3.7-3.7h10.937a3.709 3.709 0 0 1 3.705 3.7z"/><path data-name="Caminho 6042" d="M26.786 14.258a.806.806 0 1 0 .806.806.808.808 0 0 0-.806-.806z"/><path data-name="Caminho 6043" d="M20.919 15.773a5.146 5.146 0 1 0 5.146 5.146 5.152 5.152 0 0 0-5.146-5.146zm0 8.968a3.822 3.822 0 1 1 3.822-3.822 3.826 3.826 0 0 1-3.822 3.822z"/></g></g></svg>