<svg xmlns="http://www.w3.org/2000/svg" width="19.556" height="19.556"><g data-name="Grupo 7792"><g data-name="Grupo 7787"><g data-name="Grupo 7786"><path data-name="Caminho 8467" d="M15.106 5.399a.722.722 0 0 0 0-1.022 4.938 4.938 0 0 0-4-1.412.723.723 0 0 0-.651.718v.073a.723.723 0 0 0 .791.647 3.5 3.5 0 0 1 2.837 1 .722.722 0 0 0 1.023-.004z"/></g></g><g data-name="Grupo 7789"><g data-name="Grupo 7788"><path data-name="Caminho 8468" d="M19.556 8.261a8.261 8.261 0 1 0-8.261 8.261 8.27 8.27 0 0 0 8.261-8.261zm-15.076 0a6.816 6.816 0 1 1 6.816 6.816A6.823 6.823 0 0 1 4.48 8.261z"/></g></g><g data-name="Grupo 7791"><g data-name="Grupo 7790"><path data-name="Caminho 8469" d="M1.233 19.345l5.25-5.25a.723.723 0 1 0-1.022-1.022l-5.25 5.25a.723.723 0 0 0 1.022 1.022z"/></g></g></g></svg>