<?xml version="1.0" encoding="iso-8859-1"?>
<!-- Generator: Adobe Illustrator 19.0.0, SVG Export Plug-In . SVG Version: 6.00 Build 0)  -->
<svg version="1.1" id="Layer_1" xmlns="http://www.w3.org/2000/svg" xmlns:xlink="http://www.w3.org/1999/xlink" x="0px" y="0px"
	 viewBox="0 0 512 512" style="enable-background:new 0 0 512 512;" xml:space="preserve">
<path style="fill:#FF4F19;" d="M176.019,511.703H96.334c-9.852,0-17.84-7.987-17.84-17.84V368.985c0-9.852,7.987-17.84,17.84-17.84
	h79.684c9.852,0,17.84,7.987,17.84,17.84v124.878C193.858,503.715,185.871,511.703,176.019,511.703z"/>
<path style="fill:#FC0023;" d="M176.019,351.145h-40.437v160.557h40.437c9.852,0,17.84-7.987,17.84-17.84V368.985
	C193.858,359.133,185.871,351.145,176.019,351.145z"/>
<path style="fill:#FFDB2D;" d="M335.387,511.703h-79.684c-9.852,0-17.84-7.987-17.84-17.84V242.918c0-9.852,7.987-17.84,17.84-17.84
	h79.684c9.852,0,17.84,7.987,17.84,17.84v250.945C353.226,503.715,345.239,511.703,335.387,511.703z"/>
<path style="fill:#FF9900;" d="M335.387,225.078H294.95v286.625h40.437c9.852,0,17.84-7.987,17.84-17.84V242.918
	C353.226,233.065,345.239,225.078,335.387,225.078z"/>
<path style="fill:#85EDC1;" d="M493.566,511.703h-79.684c-9.852,0-17.84-7.987-17.84-17.84V118.04c0-9.852,7.987-17.84,17.84-17.84
	h79.684c9.852,0,17.84,7.987,17.84,17.84v375.823C511.405,503.715,503.418,511.703,493.566,511.703z"/>
<path style="fill:#48A792;" d="M493.566,100.2h-40.437v411.503h40.437c9.852,0,17.84-7.987,17.84-17.84V118.04
	C511.405,108.187,503.418,100.2,493.566,100.2z"/>
<path style="fill:#A7A9AC;" d="M493.566,511.703H17.84c-9.852,0-17.84-7.987-17.84-17.84V18.137c0-9.852,7.987-17.84,17.84-17.84
	s17.84,7.987,17.84,17.84v457.886h457.886c9.852,0,17.84,7.987,17.84,17.84C511.405,503.715,503.418,511.703,493.566,511.703z"/>
<path style="fill:#808285;" d="M493.692,476.023H296.139v35.679H494.16c10.521,0,18.915-9.108,17.728-19.869
	C510.883,482.732,502.849,476.023,493.692,476.023z"/>
<g>
</g>
<g>
</g>
<g>
</g>
<g>
</g>
<g>
</g>
<g>
</g>
<g>
</g>
<g>
</g>
<g>
</g>
<g>
</g>
<g>
</g>
<g>
</g>
<g>
</g>
<g>
</g>
<g>
</g>
</svg>
