<?xml version="1.0" encoding="iso-8859-1"?>
<!-- Generator: Adobe Illustrator 19.0.0, SVG Export Plug-In . SVG Version: 6.00 Build 0)  -->
<svg version="1.1" id="Layer_1" xmlns="http://www.w3.org/2000/svg" xmlns:xlink="http://www.w3.org/1999/xlink" x="0px" y="0px"
	 viewBox="0 0 460 460" style="enable-background:new 0 0 460 460;" xml:space="preserve">
<g>
	<path style="fill:#366796;" d="M230.001,0c-127.026,0-230,102.975-230,230c0,119.884,91.72,218.344,208.816,229.038
		l249.996-252.554C447.034,90.505,349.086,0,230.001,0z"/>
	<path style="fill:#121149;" d="M156.087,406.289l52.731,52.731c6.977,0.637,14.039,0.98,21.182,0.98c127.025,0,230-102.974,230-230
		c0-7.642-0.382-15.195-1.11-22.645L304.581,53.045L156.087,406.289z"/>
	<path style="fill:#E0A300;" d="M335.333,291.092v40.95c0,57.991-47.009,105-105,105l-21-145.95L335.333,291.092L335.333,291.092z"
		/>
	<path style="fill:#FEE187;" d="M230.333,291.092v145.95c-57.992,0-105-47.009-105-105v-40.95L230.333,291.092L230.333,291.092z"/>
	<path style="fill:#D48B07;" d="M335.333,250.142v40.95c0,57.992-47.009,105-105,105l-21-145.95L335.333,250.142L335.333,250.142z"
		/>
	<path style="fill:#FFC61B;" d="M230.333,250.142v145.95c-57.992,0-105-47.008-105-105v-40.95L230.333,250.142L230.333,250.142z"/>
	<path style="fill:#E0A300;" d="M335.333,209.192v40.95c0,57.991-47.009,105-105,105l-21-145.95H335.333z"/>
	<path style="fill:#FEE187;" d="M230.333,209.192v145.95c-57.992,0-105-47.009-105-105v-40.95H230.333z"/>
	<path style="fill:#D48B07;" d="M335.333,168.242v40.95c0,57.992-47.009,105-105,105l-21-145.95L335.333,168.242L335.333,168.242z"
		/>
	<path style="fill:#FFC61B;" d="M230.333,168.242v145.95c-57.992,0-105-47.008-105-105v-40.95L230.333,168.242L230.333,168.242z"/>
	<path style="fill:#E0A300;" d="M335.333,127.292v40.95c0,57.992-47.009,105-105,105l-21-145.95
		C209.334,127.292,335.333,127.292,335.333,127.292z"/>
	<path style="fill:#FEE187;" d="M230.333,127.292v145.95c-57.992,0-105-47.009-105-105v-40.95
		C125.333,127.292,230.333,127.292,230.333,127.292z"/>
	<path style="fill:#D48B07;" d="M335.333,127.292c0,57.992-47.009,105-105,105l-73.5-105l73.5-105
		C288.326,22.292,335.333,69.3,335.333,127.292z"/>
	<path style="fill:#FFC61B;" d="M125.334,127.292c0,57.991,47.009,105,105,105v-210C172.342,22.292,125.334,69.3,125.334,127.292z"
		/>
	<path style="fill:#FEE187;" d="M230.333,212.292l-53.125-85l53.125-85c46.869,0,85,38.131,85,85S277.203,212.292,230.333,212.292z"
		/>
	<path style="fill:#FFFFFF;" d="M145.333,127.292c0,46.869,38.131,85,85,85v-170C183.465,42.292,145.333,80.422,145.333,127.292z"/>
</g>
<g>
</g>
<g>
</g>
<g>
</g>
<g>
</g>
<g>
</g>
<g>
</g>
<g>
</g>
<g>
</g>
<g>
</g>
<g>
</g>
<g>
</g>
<g>
</g>
<g>
</g>
<g>
</g>
<g>
</g>
</svg>
