<?xml version="1.0" encoding="iso-8859-1"?>
<!-- Generator: Adobe Illustrator 19.0.0, SVG Export Plug-In . SVG Version: 6.00 Build 0)  -->
<svg version="1.1" id="Layer_1" xmlns="http://www.w3.org/2000/svg" xmlns:xlink="http://www.w3.org/1999/xlink" x="0px" y="0px"
	 viewBox="0 0 512 512" style="enable-background:new 0 0 512 512;" xml:space="preserve">
<path style="fill:#99522E;" d="M441.765,317.414c-3.18-3.871-7.927-6.119-12.937-6.119H320.062L288.133,512h79.827
	c23.836,0,44.525-16.965,49.196-40.338l28.072-140.365C446.209,326.386,444.945,321.291,441.765,317.414z"/>
<path style="fill:#A6673A;" d="M191.937,311.294H83.17c-5.009,0-9.757,2.249-12.937,6.119c-3.18,3.877-4.442,8.973-3.462,13.883
	l28.072,140.365C99.514,495.035,120.204,512,144.04,512h79.827L191.937,311.294z"/>
<polygon style="fill:#B37548;" points="158.129,311.294 190.06,512 223.866,512 288.133,512 321.94,512 353.87,311.294 "/>
<polygon style="fill:#A6673A;" points="256,512 288.133,512 321.94,512 353.87,311.294 256,311.294 "/>
<path style="fill:#FFC033;" d="M445,212.917c-4.127-54.205-30.881-103.369-74.829-136.575H141.829
	C97.881,109.548,71.127,158.712,67,212.917c-29.107,7.247-50.732,33.609-50.732,64.926c0,36.892,30.01,66.902,66.902,66.902h345.66
	c36.892,0,66.902-30.01,66.902-66.902C495.732,246.527,474.106,220.164,445,212.917z"/>
<path style="fill:#F9A926;" d="M445,212.917c-4.127-54.205-30.881-103.369-74.829-136.575H256v268.402h172.83
	c36.892,0,66.902-30.01,66.902-66.902C495.732,246.527,474.106,220.164,445,212.917z"/>
<path style="fill:#E6563A;" d="M196.671,162.197c-3.855,0-7.698-1.328-10.802-3.953c-27.853-23.558-52.855-47.742-52.855-84.483
	C133.014,32.401,163.7,0,202.872,0c25.502,0,42.412,13.088,53.138,26.814c10.355-13.23,26.471-25.866,50.514-26.771
	c0.022,0,0.043,0,0.07,0L309.127,0c39.173,0,69.858,32.401,69.858,73.762c0,36.739-25.001,60.924-52.855,84.483
	c-5.717,4.852-13.965,5.286-20.172,1.084c-29.891-20.21-70.038-20.21-99.917,0C203.199,161.249,199.933,162.197,196.671,162.197z"/>
<path style="fill:#D9472B;" d="M309.127,0l-2.532,0.043c-0.027,0-0.049,0-0.07,0c-24.042,0.904-40.158,13.541-50.513,26.771
	c-0.002-0.004-0.008-0.009-0.008-0.009l-0.002,117.365c17.507,0.001,35.015,5.053,49.959,15.158
	c6.206,4.204,14.455,3.768,20.172-1.084c27.853-23.558,52.855-47.742,52.855-84.483C378.986,32.401,348.3,0,309.127,0z"/>
<g>
</g>
<g>
</g>
<g>
</g>
<g>
</g>
<g>
</g>
<g>
</g>
<g>
</g>
<g>
</g>
<g>
</g>
<g>
</g>
<g>
</g>
<g>
</g>
<g>
</g>
<g>
</g>
<g>
</g>
</svg>
