<?xml version="1.0" encoding="iso-8859-1"?>
<!-- Generator: Adobe Illustrator 19.0.0, SVG Export Plug-In . SVG Version: 6.00 Build 0)  -->
<svg version="1.1" id="Layer_1" xmlns="http://www.w3.org/2000/svg" xmlns:xlink="http://www.w3.org/1999/xlink" x="0px" y="0px"
	 viewBox="0 0 512 512" style="enable-background:new 0 0 512 512;" xml:space="preserve">
<path style="fill:#CCE8FF;" d="M460.254,498.048c3.227-3.227,4.896-7.456,4.896-11.797c0-4.228-1.669-8.457-4.896-11.795
	L249.156,263.357L39.171,53.374c-6.566-6.455-17.137-6.455-23.592,0c-6.566,6.566-6.566,17.136,0,23.59l209.986,209.986
	l211.098,211.098C443.117,504.613,453.689,504.613,460.254,498.048z"/>
<path style="fill:#B0DBFF;" d="M460.254,498.048c3.227-3.227,4.896-7.456,4.896-11.797c0-4.228-1.669-8.457-4.896-11.795
	L249.156,263.357l-23.591,23.592l211.098,211.098C443.117,504.613,453.689,504.613,460.254,498.048z"/>
<path style="fill:#FFD9B3;" d="M496.283,32.368c0-4.271-1.63-8.542-4.891-11.801c-6.514-6.52-17.088-6.52-23.604,0L138.427,349.929
	c-6.52,6.52-6.52,17.084,0,23.604c6.514,6.52,17.088,6.52,23.604,0L491.393,44.169C494.653,40.909,496.283,36.639,496.283,32.368z"
	/>
<path style="fill:#FFC080;" d="M491.393,20.566c3.26,3.261,4.891,7.531,4.891,11.801c0,4.27-1.63,8.542-4.891,11.801
	L162.031,373.532c-6.514,6.52-17.088,6.52-23.604,0"/>
<path style="fill:#57D4D4;" d="M511.888,83.53V16.762c0-9.215-7.471-16.692-16.692-16.692h-66.768
	c-9.221,0-16.692,7.477-16.692,16.692s7.471,16.692,16.692,16.692h50.076V83.53c0,9.215,7.471,16.692,16.692,16.692
	S511.888,92.745,511.888,83.53z"/>
<path style="fill:#4DBFBF;" d="M495.196,100.222c-9.221,0-16.692-7.477-16.692-16.692V33.454l28.494-28.493
	c3.021,3.021,4.89,7.194,4.89,11.801V83.53C511.888,92.745,504.417,100.222,495.196,100.222z"/>
<path style="fill:#57D4D4;" d="M162.031,440.3l-66.768,66.768c-4.771,4.771-11.954,6.205-18.192,3.619
	c-6.238-2.586-10.302-8.672-10.302-15.42v-50.076H16.693c-6.754,0-12.839-4.064-15.42-10.302c-2.581-6.216-1.168-13.41,3.619-18.192
	l66.768-66.768c3.13-3.13,7.373-4.891,11.801-4.891h66.768c9.221,0,16.692,7.477,16.692,16.692v66.768
	C166.921,432.921,165.16,437.17,162.031,440.3z"/>
<path style="fill:#4DBFBF;" d="M66.769,495.266V445.19l95.262-95.261c3.021,3.021,4.89,7.194,4.89,11.801v66.768
	c0,4.423-1.76,8.672-4.891,11.801l-66.768,66.768c-4.771,4.771-11.954,6.205-18.192,3.619
	C70.831,508.1,66.769,502.015,66.769,495.266z"/>
<path style="fill:#E6563A;" d="M471.16,511.958c13.354,0,26.485-5.23,35.943-14.69c3.227-3.226,4.896-7.566,4.896-11.795
	c0-4.229-1.669-8.569-4.896-11.795c-6.565-6.567-17.582-6.567-24.148,0c-3.116,3.116-7.344,4.895-11.796,4.895
	s-8.68-1.779-11.796-4.895c-3.116-3.116-4.896-7.344-4.896-11.797c0-18.694,3.561-46.625,7.011-73.667
	c3.45-28.043,7.122-56.975,7.122-77.785c0-37.279-16.469-75.003-45.402-103.489c-11.462-11.239-23.925-20.254-37.279-26.821
	c-13.354-6.454-27.375-10.683-41.619-12.462c-3.338-31.605-17.805-62.874-40.617-85.908c-25.261-25.483-57.977-39.504-92.14-39.504
	c-20.809,0-50.966,3.784-82.792,7.677c-29.489,3.785-59.98,7.566-78.675,7.566c-4.451,0-8.68-1.779-11.796-4.895
	c-6.343-6.342-6.343-17.805,0-24.035c6.454-6.567,6.454-17.137,0-23.592C31.715-1.6,21.144-1.6,14.69,4.965
	C5.231,14.425,0.001,27.444,0.001,40.797c0,13.355,5.23,25.929,14.689,35.389c9.459,9.458,22.033,14.687,35.387,14.687
	c20.809,0,50.855-3.781,82.792-7.79c29.489-3.672,59.98-7.455,78.675-7.455c25.148,0,49.52,10.459,68.437,29.599
	c20.364,20.699,32.271,48.742,31.715,77.118c0,1.113,0,2.115,0.223,3.226c0.556,3.673,2.226,7.234,4.674,9.682h0.11
	c3.116,3.116,7.344,4.006,11.796,4.006c24.815-0.334,50.855,11.128,71.219,31.38c22.256,22.033,35.498,51.856,35.498,79.788
	c0,18.696-3.45,46.627-6.899,73.667c-3.561,28.043-7.233,56.975-7.233,77.785c0,13.354,5.23,25.929,14.689,35.386
	C445.232,506.729,457.806,511.958,471.16,511.958z"/>
<path style="fill:#D9472B;" d="M471.16,511.958c13.354,0,26.485-5.23,35.943-14.69c3.227-3.226,4.896-7.566,4.896-11.795
	c0-4.229-1.669-8.569-4.896-11.795c-6.565-6.567-17.582-6.567-24.148,0c-3.116,3.116-7.344,4.895-11.796,4.895
	s-8.68-1.779-11.796-4.895c-3.116-3.116-4.896-7.344-4.896-11.797c0-18.694,3.561-46.625,7.011-73.667
	c3.45-28.043,7.122-56.975,7.122-77.785c0-37.279-16.469-75.003-45.402-103.489c-11.462-11.239-23.925-20.254-37.279-26.821
	c-13.354-6.454-27.375-10.683-41.619-12.462l-27.597,27.597c3.116,3.116,7.344,4.006,11.796,4.006
	c24.815-0.334,50.855,11.128,71.219,31.38c22.256,22.033,35.498,51.856,35.498,79.788c0,18.696-3.45,46.627-6.899,73.667
	c-3.561,28.043-7.233,56.975-7.233,77.785c0,13.354,5.23,25.929,14.689,35.386C445.232,506.729,457.806,511.958,471.16,511.958z"/>
<g>
</g>
<g>
</g>
<g>
</g>
<g>
</g>
<g>
</g>
<g>
</g>
<g>
</g>
<g>
</g>
<g>
</g>
<g>
</g>
<g>
</g>
<g>
</g>
<g>
</g>
<g>
</g>
<g>
</g>
</svg>
