<?xml version="1.0" encoding="iso-8859-1"?>
<!-- Generator: Adobe Illustrator 19.0.0, SVG Export Plug-In . SVG Version: 6.00 Build 0)  -->
<svg version="1.1" id="Layer_1" xmlns="http://www.w3.org/2000/svg" xmlns:xlink="http://www.w3.org/1999/xlink" x="0px" y="0px"
	 viewBox="0 0 512.001 512.001" style="enable-background:new 0 0 512.001 512.001;" xml:space="preserve">
<path style="fill:#FFD9B3;" d="M28.257,500.652c-4.268,0-8.536-1.629-11.793-4.887c-6.516-6.51-6.516-17.077,0-23.588l90.832-90.832
	c6.516-6.516,17.072-6.516,23.588,0c6.516,6.51,6.516,17.077,0,23.588l-90.832,90.832C36.793,499.023,32.525,500.652,28.257,500.652
	z"/>
<path style="fill:#FFC080;" d="M28.257,500.652c4.268,0,8.536-1.629,11.793-4.887l90.832-90.832c6.516-6.51,6.516-17.077,0-23.588
	L16.464,495.765C19.721,499.023,23.989,500.652,28.257,500.652z"/>
<path style="fill:#E6563A;" d="M360.438,153.035c-18.471-15.624-41.958-24.843-67.835-24.843c-47.829,0-76.354,30.248-91.978,56.036
	c-15.624-25.788-44.148-56.036-91.978-56.036C47.729,128.191,0,179.323,0,244.601c0,62.097,43.737,105.923,107.28,160.347
	c7.907,6.795,16.136,13.734,24.621,20.907c18.138,15.246,36.976,30.971,57.816,49.008c3.125,2.702,7.017,4.059,10.909,4.059
	s7.784-1.357,10.909-4.059c17.626-15.257,34.34-29.303,50.009-42.447c84.127-70.682,139.707-117.366,139.707-187.815
	C401.251,207.048,385.46,174.175,360.438,153.035z"/>
<path style="fill:#D9472B;" d="M401.251,244.602c0,70.449-55.58,117.132-139.707,187.815c-15.669,13.144-32.383,27.19-50.009,42.447
	c-3.125,2.702-7.017,4.059-10.909,4.059s-7.784-1.357-10.909-4.059c-20.84-18.037-39.678-33.762-57.816-49.008
	c-8.485-7.173-16.714-14.112-24.621-20.907l252.403-252.403c0.222,0.178,0.467,0.345,0.756,0.489
	C385.46,174.175,401.251,207.048,401.251,244.602z"/>
<path style="fill:#FFD9B3;" d="M299.624,229.285c-4.268,0-8.536-1.629-11.793-4.887c-6.516-6.51-6.516-17.077,0-23.588
	l62.249-62.249c6.516-6.516,17.072-6.516,23.588,0c6.516,6.51,6.516,17.077,0,23.588l-62.249,62.249
	C308.16,227.655,303.892,229.285,299.624,229.285z"/>
<path style="fill:#57D4D4;" d="M428.596,167.036h-66.723c-9.209,0-16.681-7.466-16.681-16.681V83.632
	c0-4.425,1.759-8.666,4.887-11.793l66.723-66.723c4.778-4.784,11.968-6.195,18.18-3.616c6.233,2.579,10.295,8.661,10.295,15.41
	v50.042h50.042c6.743,0,12.825,4.061,15.41,10.295c2.584,6.234,1.151,13.412-3.616,18.18L440.39,162.15
	C437.262,165.277,433.017,167.036,428.596,167.036z"/>
<path style="fill:#FFC080;" d="M287.83,224.398c3.258,3.258,7.526,4.887,11.793,4.887c4.267,0,8.536-1.629,11.793-4.887
	l62.249-62.249c6.516-6.51,6.516-17.077,0-23.588"/>
<path style="fill:#4DBFBF;" d="M495.319,66.952h-50.042L350.08,162.15c3.019,3.019,7.189,4.886,11.793,4.886h66.723
	c4.42,0,8.666-1.759,11.793-4.887l66.723-66.723c4.767-4.767,6.201-11.946,3.616-18.18
	C508.145,71.012,502.063,66.952,495.319,66.952z"/>
<path style="fill:#57D4D4;" d="M83.86,511.773H17.137c-9.209,0-16.681-7.466-16.681-16.681v-66.723
	c0-9.214,7.472-16.681,16.681-16.681s16.681,7.466,16.681,16.681v50.042H83.86c9.209,0,16.681,7.466,16.681,16.681
	S93.069,511.773,83.86,511.773z"/>
<path style="fill:#4DBFBF;" d="M100.541,495.092c0-9.214-7.472-16.681-16.681-16.681H33.818L5.343,506.886
	c3.019,3.019,7.189,4.886,11.793,4.886H83.86C93.069,511.773,100.541,504.306,100.541,495.092z"/>
<g>
</g>
<g>
</g>
<g>
</g>
<g>
</g>
<g>
</g>
<g>
</g>
<g>
</g>
<g>
</g>
<g>
</g>
<g>
</g>
<g>
</g>
<g>
</g>
<g>
</g>
<g>
</g>
<g>
</g>
</svg>
