<?xml version="1.0" encoding="iso-8859-1"?>
<!-- Generator: Adobe Illustrator 19.0.0, SVG Export Plug-In . SVG Version: 6.00 Build 0)  -->
<svg version="1.1" id="Layer_1" xmlns="http://www.w3.org/2000/svg" xmlns:xlink="http://www.w3.org/1999/xlink" x="0px" y="0px"
	 viewBox="0 0 460 460" style="enable-background:new 0 0 460 460;" xml:space="preserve">
<g>
	<path style="fill:#FF6161;" d="M230,0C102.974,0,0,102.975,0,230c0,117.754,88.492,214.84,202.602,228.385l256.907-213.223
		C459.834,240.15,460,235.094,460,230C460,102.975,357.026,0,230,0z"/>
	<path style="fill:#FF0F27;" d="M459.49,245.16l-38.82-38.82l-24.059,26.051L270.66,106.44L60.667,316.432l141.937,141.937
		C211.589,459.436,220.728,460,230,460C351.93,460,451.682,365.116,459.49,245.16z"/>
	<polygon style="fill:#FEE187;" points="350.66,136.44 250.66,136.44 270.66,316.43 420.67,316.43 420.67,206.34 	"/>
	<path style="fill:#940030;" d="M218.617,58.437c-6.559,0-12.501,2.631-16.833,6.895l-27.558,27.24l-4.155,19.395l48.546-5.527
		c13.256,0,24.002-10.746,24.002-24.002S231.873,58.437,218.617,58.437z"/>
	<path style="fill:#C2001B;" d="M113.433,58.437c6.559,0,12.501,2.631,16.833,6.895l27.558,27.24l4.155,19.395l-48.546-5.527
		c-13.256,0-24.002-10.746-24.002-24.002S100.177,58.437,113.433,58.437z"/>
	<rect x="149.443" y="84.288" style="fill:#FF0F27;" width="33.163" height="27.68"/>
	<polygon style="fill:#71E2F0;" points="271.019,159.274 271.019,316.432 166.025,316.432 144.891,135.541 	"/>
	<polygon style="fill:#FFFFFF;" points="166.025,135.541 166.025,316.432 61.03,316.432 61.03,159.274 	"/>
	<polygon style="fill:#C2FBFF;" points="61.03,106.44 61.03,159.274 271.019,159.274 271.019,106.44 194.203,106.44 
		166.025,120.529 137.847,106.44 	"/>
	<polygon style="fill:#C2001B;" points="194.203,106.441 194.203,233.624 166.025,217.746 151.936,157.971 166.025,106.441 	"/>
	<polygon style="fill:#FF0F27;" points="166.025,106.441 166.025,217.746 137.847,233.624 137.847,106.441 	"/>
	<circle style="fill:#273B7A;" cx="145.673" cy="316.432" r="45"/>
	<path style="fill:#C2FBFF;" d="M145.673,341.433l-15-25l15-25c13.785,0,25,11.215,25,25S159.458,341.433,145.673,341.433z"/>
	<path style="fill:#FFFFFF;" d="M120.673,316.433c0,13.785,11.215,25,25,25v-50C131.887,291.433,120.673,302.647,120.673,316.433z"
		/>
	<circle style="fill:#121149;" cx="345.661" cy="316.432" r="45"/>
	<path style="fill:#71E2F0;" d="M345.661,341.433l-15-25l15-25c13.785,0,25,11.215,25,25S359.446,341.433,345.661,341.433z"/>
	<path style="fill:#C2FBFF;" d="M320.661,316.433c0,13.785,11.215,25,25,25v-50C331.876,291.433,320.661,302.647,320.661,316.433z"
		/>
</g>
<g>
</g>
<g>
</g>
<g>
</g>
<g>
</g>
<g>
</g>
<g>
</g>
<g>
</g>
<g>
</g>
<g>
</g>
<g>
</g>
<g>
</g>
<g>
</g>
<g>
</g>
<g>
</g>
<g>
</g>
</svg>
