<?xml version="1.0" encoding="iso-8859-1"?>
<!-- Generator: Adobe Illustrator 19.0.0, SVG Export Plug-In . SVG Version: 6.00 Build 0)  -->
<svg version="1.1" id="Layer_1" xmlns="http://www.w3.org/2000/svg" xmlns:xlink="http://www.w3.org/1999/xlink" x="0px" y="0px"
	 viewBox="0 0 512 512" style="enable-background:new 0 0 512 512;" xml:space="preserve">
<path style="fill:#4FC0E8;" d="M0,256.006C0,397.402,114.606,512.004,255.996,512C397.394,512.004,512,397.402,512,256.006
	C512.009,114.61,397.394,0,255.996,0C114.606,0,0,114.614,0,256.006z"/>
<path style="fill:#3DAED9;" d="M501.361,329.072c-0.415-0.532-239.063-239.248-239.706-239.706
	c-1.282-1.797-3.281-3.045-5.657-3.045c-3.904,0-7.07,3.166-7.07,7.07V401.54L119.6,272.211c-2.762-2.762-7.235-2.762-9.998,0
	c-2.763,2.762-2.762,7.235,0,9.998l141.391,141.398l77.826,77.826C411.555,476.926,476.771,411.772,501.361,329.072z"/>
<path style="fill:#F4F6F9;" d="M402.397,272.211c-2.762-2.762-7.235-2.762-9.997,0L263.07,401.535V93.392
	c0-3.904-3.166-7.07-7.07-7.07c-3.904,0-7.07,3.166-7.07,7.07v308.156L119.6,272.211c-2.762-2.762-7.235-2.762-9.997,0
	c-2.762,2.762-2.762,7.235,0,9.997l141.392,141.398c1.326,1.326,3.124,2.071,4.998,2.071c1.874,0,3.673-0.746,4.998-2.071
	l141.405-141.398C405.159,279.446,405.159,274.973,402.397,272.211z"/>
<g>
</g>
<g>
</g>
<g>
</g>
<g>
</g>
<g>
</g>
<g>
</g>
<g>
</g>
<g>
</g>
<g>
</g>
<g>
</g>
<g>
</g>
<g>
</g>
<g>
</g>
<g>
</g>
<g>
</g>
</svg>
