<?xml version="1.0" encoding="iso-8859-1"?>
<!-- Generator: Adobe Illustrator 19.0.0, SVG Export Plug-In . SVG Version: 6.00 Build 0)  -->
<svg version="1.1" id="Layer_1" xmlns="http://www.w3.org/2000/svg" xmlns:xlink="http://www.w3.org/1999/xlink" x="0px" y="0px"
	 viewBox="0 0 491.2 491.2" style="enable-background:new 0 0 491.2 491.2;" xml:space="preserve">
<g>
	<path style="fill:#0D4972;" d="M189.754,248c0,33.6-26.4,45.6-60,45.6l0,0c-33.6,0-60-12-60-45.6v-90.4c0-33.6,26.4-60,60-60l0,0
		c33.6,0,60,27.2,60,60V248z"/>
	<path style="fill:#0D4972;" d="M90.554,36c0,24.8,16.8,45.6,36.8,45.6s36.8-20,36.8-45.6c0-24.8-16.8-36-36.8-36
		S90.554,10.4,90.554,36z"/>
	<path style="fill:#0D4972;" d="M117.754,473.6c0,9.6-10.4,17.6-20,17.6l0,0c-9.6,0-20-8-20-17.6V264.8c0-9.6,10.4-17.6,20-17.6l0,0
		c9.6,0,20,8,20,17.6V473.6z"/>
	<path style="fill:#0D4972;" d="M181.754,473.6c0,9.6-10.4,17.6-20,17.6l0,0c-9.6,0-20-8-20-17.6V264.8c0-9.6,10.4-17.6,20-17.6l0,0
		c9.6,0,20,8,20,17.6V473.6z"/>
	<path style="fill:#0D4972;" d="M173.754,274.4c0,16-16,27.2-32.8,27.2h-22.4c-16,0-25.6-10.4-25.6-27.2v-21.6
		c0-16,9.6-31.2,25.6-31.2h22.4c16,0,32.8,15.2,32.8,31.2V274.4z"/>
	<path style="fill:#0D4972;" d="M201.754,113.6c0,10.4-8.8,20-19.2,20h-104.8c-10.4,0-19.2-9.6-19.2-20l0,0c0-10.4,8.8-20,19.2-20
		h104.8C192.954,93.6,201.754,103.2,201.754,113.6L201.754,113.6z"/>
	<path style="fill:#0D4972;" d="M90.554,100.8c8,5.6,8.8,11.2,3.2,19.2l-53.6,81.6c-5.6,8-16,10.4-24.8,4.8l0,0
		c-8-5.6-10.4-16-4.8-24.8l51.2-77.6C67.354,96,82.554,95.2,90.554,100.8L90.554,100.8z"/>
	<path style="fill:#0D4972;" d="M171.354,99.2c-8,5.6-10.4,12.8-4.8,20.8l53.6,81.6c5.6,8,16,10.4,24.8,4.8l0,0
		c8-5.6,10.4-16,4.8-24.8l-50.4-78.4C193.754,96,179.354,93.6,171.354,99.2L171.354,99.2z"/>
</g>
<g>
	<path style="fill:#C91911;" d="M417.754,268.8c0,30.4-16,41.6-46.4,41.6l0,0c-30.4,0-46.4-11.2-46.4-41.6l11.2-59.2l-20-41.6
		c0-30.4,24.8-37.6,55.2-37.6l0,0c30.4,0,55.2,7.2,55.2,37.6l-20,39.2L417.754,268.8z"/>
	<path style="fill:#C91911;" d="M335.354,74.4c0,23.2,15.2,41.6,33.6,41.6s33.6-18.4,33.6-41.6s-15.2-41.6-33.6-41.6
		C350.554,32.8,335.354,51.2,335.354,74.4z"/>
	<path style="fill:#C91911;" d="M348.954,475.2c0,8.8,1.6,16-7.2,16l0,0c-8.8,0-16-7.2-16-16V284c0-8.8,7.2-16,16-16l0,0
		c8.8,0,16,7.2,16,16L348.954,475.2z"/>
	<path style="fill:#C91911;" d="M413.754,475.2c0,8.8-5.6,16-14.4,16l0,0c-8.8,0-6.4-7.2-6.4-16l-8-191.2c0-8.8,5.6-16,14.4-16l0,0
		c8.8,0,14.4,7.2,14.4,16V475.2z"/>
	<path style="fill:#C91911;" d="M405.754,292.8c0,15.2-9.6,24.8-24,24.8h-20c-15.2,0-28-9.6-28-24.8v-20c0-15.2,12.8-27.2,28-27.2
		h20c15.2,0,24,12.8,24,27.2V292.8z"/>
	<path style="fill:#C91911;" d="M436.954,145.6c0,9.6-8,20-17.6,20h-96c-9.6,0-17.6-10.4-17.6-20l0,0c0-9.6,8-20,17.6-20h96
		C428.954,125.6,436.954,136,436.954,145.6L436.954,145.6z"/>
	<path style="fill:#C91911;" d="M333.754,128.8c7.2,4.8,9.6,15.2,4.8,22.4l-57.6,66.4c-4.8,7.2-6.4,18.4-13.6,13.6l0,0
		c-7.2-4.8-9.6-15.2-4.8-22.4l48.8-75.2C316.154,125.6,325.754,124,333.754,128.8L333.754,128.8z"/>
	<path style="fill:#C91911;" d="M409.754,128.8c-7.2,4.8-9.6,15.2-4.8,22.4l61.6,68.8c4.8,7.2,3.2,14.4,10.4,9.6l0,0
		c7.2-4.8,8.8-13.6,4-21.6l-48.8-74.4C427.354,125.6,416.954,124,409.754,128.8L409.754,128.8z"/>
	<polygon style="fill:#C91911;" points="418.554,117.6 319.354,117.6 336.954,69.6 400.954,69.6 	"/>
	<polygon style="fill:#C91911;" points="443.354,389.6 299.354,389.6 326.554,261.6 416.954,261.6 	"/>
</g>
<g>
	<path style="fill:#22B2B2;" d="M279.354,419.2c0,18.4-15.2,25.6-33.6,25.6l0,0c-18.4,0-33.6-6.4-33.6-25.6v-50.4
		c0-18.4,15.2-33.6,33.6-33.6l0,0c18.4,0,33.6,15.2,33.6,33.6V419.2z"/>
	<path style="fill:#22B2B2;" d="M224.154,310.4c0,13.6,9.6,25.6,20.8,25.6c11.2,0,20.8-11.2,20.8-25.6c0-13.6-9.6-20-20.8-20
		C232.954,290.4,224.154,296,224.154,310.4z"/>
	<path style="fill:#22B2B2;" d="M237.754,477.6c0,5.6-4,9.6-9.6,9.6l0,0c-5.6,0-9.6-4-9.6-9.6v-116c0-5.6,4-9.6,9.6-9.6l0,0
		c5.6,0,9.6,4,9.6,9.6V477.6z"/>
	<path style="fill:#22B2B2;" d="M273.754,477.6c0,5.6-4,9.6-9.6,9.6l0,0c-5.6,0-9.6-4-9.6-9.6v-116c0-5.6,4-9.6,9.6-9.6l0,0
		c5.6,0,9.6,4,9.6,9.6V477.6z"/>
	<path style="fill:#22B2B2;" d="M268.154,434.4c0,8.8-7.2,16-16,16h-12c-8.8,0-16-7.2-16-16v-12.8c0-8.8,7.2-16,16-16h12
		c8.8,0,16,7.2,16,16V434.4z"/>
	<path style="fill:#22B2B2;" d="M285.754,344c0,5.6-4.8,10.4-10.4,10.4h-58.4c-5.6,0-10.4-4.8-10.4-10.4l0,0
		c0-5.6,4.8-10.4,10.4-10.4h58.4C280.954,333.6,285.754,338.4,285.754,344L285.754,344z"/>
	<path style="fill:#22B2B2;" d="M229.754,351.2c2.4,4.8,0,11.2-4.8,12.8l0,0c-4.8,2.4-10.4,0-12.8-4.8l-21.6-50.4
		c-2.4-4.8,0-10.4,4.8-12.8l0,0c4.8-2.4,11.2,0,12.8,4.8"/>
	<path style="fill:#22B2B2;" d="M265.754,369.6c4.8,2.4,10.4,0.8,13.6-4l26.4-47.2c2.4-4.8,0.8-10.4-4-13.6l0,0
		c-4.8-2.4-10.4-0.8-13.6,4l-26.4,47.2C259.354,360.8,260.954,366.4,265.754,369.6L265.754,369.6z"/>
</g>
<g>
</g>
<g>
</g>
<g>
</g>
<g>
</g>
<g>
</g>
<g>
</g>
<g>
</g>
<g>
</g>
<g>
</g>
<g>
</g>
<g>
</g>
<g>
</g>
<g>
</g>
<g>
</g>
<g>
</g>
</svg>
