<?xml version="1.0" encoding="iso-8859-1"?>
<!-- Generator: Adobe Illustrator 19.0.0, SVG Export Plug-In . SVG Version: 6.00 Build 0)  -->
<svg version="1.1" id="Layer_1" xmlns="http://www.w3.org/2000/svg" xmlns:xlink="http://www.w3.org/1999/xlink" x="0px" y="0px"
	 viewBox="0 0 512 512" style="enable-background:new 0 0 512 512;" xml:space="preserve">
<g>
	
		<rect x="372.173" y="190.378" transform="matrix(-0.9063 -0.4226 0.4226 -0.9063 625.8049 610.86)" style="fill:#566916;" width="16.879" height="91.371"/>
	
		<rect x="85.702" y="227.632" transform="matrix(-0.4226 -0.9063 0.9063 -0.4226 -27.0423 454.9144)" style="fill:#566916;" width="91.371" height="16.879"/>
	<rect x="247.56" y="175.352" style="fill:#566916;" width="16.879" height="97.528"/>
</g>
<g>
	<polygon style="fill:#F89890;" points="288.532,0 265.7,0 247.842,90.022 304.105,45.011 	"/>
	<path style="fill:#F89890;" d="M287.586,45.011h2.836C289.477,45.011,288.532,45.022,287.586,45.011z"/>
</g>
<polygon style="fill:#FFC5BF;" points="265.7,0 270.347,45.011 239.684,78.769 207.895,45.011 223.468,0 "/>
<path style="fill:#F89890;" d="M192.827,45.011c0,0-4.344,70.251-4.344,71.264c0,9.182,1.834,17.948,5.165,25.926v-0.416
	l93.938-96.729C287.586,45.011,192.827,45.011,192.827,45.011z"/>
<path style="fill:#EA3F31;" d="M319.173,45.011h-28.751c-0.945,0-1.89,0.011-2.836,0.045L256,183.791
	c37.292,0,67.517-30.225,67.517-67.516C323.517,115.262,319.173,45.011,319.173,45.011z"/>
<path style="fill:#F16C60;" d="M287.586,45.056c-52.179,1.497-93.938,44.178-93.938,96.729v0.416
	c10.172,24.43,34.253,41.59,62.351,41.59c18.646,0,33.758-30.225,33.758-67.516C289.758,115.273,287.654,47.081,287.586,45.056z"/>
<g>
	<polygon style="fill:#F89890;" points="501.002,54.88 480.309,45.23 426.079,119.271 496.093,102.255 	"/>
	<path style="fill:#F89890;" d="M481.122,95.274l2.57,1.198C482.835,96.073,481.974,95.684,481.122,95.274z"/>
</g>
<polygon style="fill:#FFC5BF;" points="480.309,45.23 465.498,87.989 423.441,105.625 408.897,61.595 442.034,27.382 "/>
<path style="fill:#F89890;" d="M395.24,55.227c0,0-33.625,61.833-34.054,62.751c-3.881,8.321-5.922,17.041-6.276,25.68l0.176-0.377
	l126.016-47.966C481.122,95.274,395.24,55.227,395.24,55.227z"/>
<path style="fill:#EA3F31;" d="M509.749,108.623l-26.057-12.151c-0.856-0.399-1.718-0.789-2.589-1.158l-87.259,112.388
	c33.798,15.761,73.964,1.141,89.725-32.657C483.996,174.127,509.749,108.623,509.749,108.623z"/>
<path style="fill:#F16C60;" d="M481.103,95.315c-47.923-20.695-103.808,0.339-126.016,47.966l-0.176,0.377
	c-1.105,26.439,13.467,52.17,38.932,64.044c16.899,7.88,43.369-13.126,59.129-46.924C453.397,159.871,480.308,97.179,481.103,95.315
	z"/>
<g>
	<polygon style="fill:#F89890;" points="69.967,27.382 49.275,37.031 71.133,126.166 103.103,61.594 	"/>
	<path style="fill:#F89890;" d="M88.133,68.575l2.57-1.198C89.845,67.776,88.993,68.186,88.133,68.575z"/>
</g>
<polygon style="fill:#FFC5BF;" points="49.275,37.031 72.508,75.86 58.985,119.415 15.907,102.254 11,54.879 "/>
<path style="fill:#F89890;" d="M2.251,108.622c0,0,25.752,65.504,26.181,66.423c3.88,8.321,9.248,15.492,15.638,21.315l-0.176-0.377
	L88.152,68.616C88.133,68.575,2.251,108.622,2.251,108.622z"/>
<path style="fill:#EA3F31;" d="M116.76,55.226L90.703,67.377c-0.856,0.399-1.709,0.809-2.551,1.239l30.004,139.086
	c33.798-15.759,48.417-55.926,32.658-89.724C150.385,117.06,116.76,55.226,116.76,55.226z"/>
<path style="fill:#F16C60;" d="M88.152,68.616c-46.658,23.408-66.467,79.738-44.258,127.365l0.176,0.377
	c19.544,17.842,48.621,23.218,74.086,11.343c16.899-7.88,17.822-41.66,2.063-75.458C119.795,131.336,89.069,70.423,88.152,68.616z"
	/>
<path style="fill:#A7B65F;" d="M295.385,444.484c-0.011,0-61.89-22.506-61.89-22.506L256,512h50.637L295.385,444.484z"/>
<polygon style="fill:#C4CE94;" points="256,410.725 256,512 205.363,512 216.615,444.484 "/>
<path style="fill:#A7B65F;" d="M365.714,264.44l-79.602,180.044h9.261c1.328-0.979,85.307-63.004,104.099-180.044H365.714z"/>
<path style="fill:#C4CE94;" d="M289.758,264.44L256,444.484h30.112c0,0,65.12-62.081,79.602-180.044H289.758z"/>
<path style="fill:#E2E7CA;" d="M112.516,264.44h177.242C289.758,379.78,256,444.484,256,444.484h-39.385
	C216.615,444.484,131.455,382.402,112.516,264.44z"/>
<path style="fill:#9E52B6;" d="M303.824,452.923h-95.648c-4.661,0-8.44-3.779-8.44-8.44c0-4.661,3.779-8.44,8.44-8.44h95.648
	c4.662,0,8.44,3.779,8.44,8.44C312.264,449.144,308.486,452.923,303.824,452.923z"/>
<g>
</g>
<g>
</g>
<g>
</g>
<g>
</g>
<g>
</g>
<g>
</g>
<g>
</g>
<g>
</g>
<g>
</g>
<g>
</g>
<g>
</g>
<g>
</g>
<g>
</g>
<g>
</g>
<g>
</g>
</svg>
