<?xml version="1.0" encoding="iso-8859-1"?>
<!-- Generator: Adobe Illustrator 19.0.0, SVG Export Plug-In . SVG Version: 6.00 Build 0)  -->
<svg xmlns="http://www.w3.org/2000/svg" xmlns:xlink="http://www.w3.org/1999/xlink" version="1.1" id="Layer_1" x="0px" y="0px" viewBox="0 0 492.666 492.666" style="enable-background:new 0 0 492.666 492.666;" xml:space="preserve" width="512" height="512">
<g>
	<polygon style="fill:#836F5A;" points="360.704,246.68 246.858,30.126 133.012,246.68 133.012,442.116 360.704,442.116  "/>
	<g>
		<polygon style="fill:#ECE7E3;" points="286.433,105.404 246.858,30.126 207.283,105.404 246.858,134.976   "/>
	</g>
	<g style="opacity:0.29;">
		<polygon style="fill:#564A3D;" points="133.012,397.834 133.012,442.367 360.704,442.367 360.704,246.931 331.846,192.038   "/>
	</g>
	<path style="fill:#3F8E50;" d="M325.857,412.706l7.295-10.433c4.346-6.216-0.1-14.751-7.685-14.751h-14.234l17.104-33.307   l15.425-22.058c4.346-6.216-0.1-14.751-7.685-14.751h-23.849l13.102-18.737l5.707-8.162l60.8-86.947l79.609,113.846h-23.849   c-7.585,0-12.031,8.536-7.685,14.751l38.715,55.365h-20.421c-7.585,0-12.031,8.536-7.685,14.751l42.143,60.267H291.009   L325.857,412.706z"/>
	<path style="opacity:0.5;fill:#2B5448;" d="M450.523,402.274c-4.346-6.216,0.1-14.751,7.685-14.751h20.421l-38.715-55.365   c-4.346-6.216,0.1-14.751,7.685-14.751h23.848L391.837,203.56l-9.236,13.208l50.237,71.841h-23.849   c-7.584,0-12.031,8.536-7.685,14.751l38.715,55.365h-20.421c-7.584,0-12.031,8.536-7.685,14.751l42.143,60.267H311.145   l-20.137,28.796h201.657L450.523,402.274z"/>
	<path style="fill:#3F8E50;" d="M166.81,412.706l-7.295-10.433c-4.346-6.216,0.1-14.751,7.685-14.751h14.234l-17.104-33.307   l-15.425-22.058c-4.346-6.216,0.1-14.751,7.685-14.751h23.849l-13.102-18.737l-5.707-8.162l-60.8-86.947L21.219,317.406h23.849   c7.585,0,12.031,8.536,7.685,14.751l-38.715,55.365h20.421c7.585,0,12.031,8.536,7.685,14.751L0,462.54h201.657L166.81,412.706z"/>
	<path style="opacity:0.5;fill:#2B5448;" d="M159.514,402.274c-4.346-6.216,0.1-14.751,7.685-14.751h20.421l-38.715-55.365   c-4.346-6.216,0.1-14.751,7.685-14.751h23.848L100.829,203.56l-9.236,13.208l50.237,71.841h-23.849   c-7.584,0-12.031,8.536-7.685,14.751l38.715,55.365H128.59c-7.584,0-12.031,8.536-7.685,14.751l42.143,60.267H20.137L0,462.54   h201.657L159.514,402.274z"/>
	<path style="fill:#71CE93;" d="M360.704,462.54l-47.584-68.047c-4.908-7.018,0.113-16.656,8.677-16.656h23.057l-43.713-62.513   c-4.908-7.018,0.113-16.656,8.677-16.656h26.927l-89.887-128.543l-89.887,128.543h26.927c8.564,0,13.585,9.638,8.677,16.656   l-43.713,62.513h23.057c8.564,0,13.585,9.638,8.677,16.656l-47.584,68.047H360.704z"/>
	<path style="opacity:0.3;fill:#2B5448;" d="M313.12,394.493c-4.908-7.018,0.113-16.656,8.677-16.656h23.057l-43.713-62.513   c-4.908-7.018,0.113-16.656,8.677-16.656h26.927l-89.887-128.543l-13.028,18.63l63.664,91.042h-26.927   c-8.564,0-13.585,9.638-8.677,16.656l43.713,62.513h-23.057c-8.564,0-13.585,9.638-8.677,16.656l47.584,68.047H146.208   l-13.196,18.871h227.691L313.12,394.493z"/>
</g>















</svg>
