<?xml version="1.0" encoding="iso-8859-1"?>
<!-- Generator: Adobe Illustrator 19.0.0, SVG Export Plug-In . SVG Version: 6.00 Build 0)  -->
<svg version="1.1" id="Layer_1" xmlns="http://www.w3.org/2000/svg" xmlns:xlink="http://www.w3.org/1999/xlink" x="0px" y="0px"
	 viewBox="0 0 460 460" style="enable-background:new 0 0 460 460;" xml:space="preserve">
<g>
	<path style="fill:#273B7A;" d="M230,0C102.975,0,0,102.975,0,230c0,100.274,64.168,185.561,153.682,217.036l293.638-292.54
		C416.076,64.558,330.577,0,230,0z"/>
	<path style="fill:#121149;" d="M460,230c0-26.449-4.478-51.849-12.695-75.5L356.19,63.386L77.333,212.516l125.575,125.576
		L95.333,388.667l58.351,58.352C177.567,455.417,203.247,460,230,460C357.026,460,460,357.026,460,230z"/>
	<path style="fill:#FF0F27;" d="M325.485,50.667c-11.866,0-22.617,4.761-30.455,12.475l-49.859,49.284l-7.516,35.09l87.831-10
		c23.983,0,43.424-19.442,43.424-43.425S349.467,50.667,325.485,50.667z"/>
	<path style="fill:#FF6161;" d="M135.182,50.667c11.866,0,22.617,4.761,30.455,12.475l49.859,49.284l7.516,35.09l-87.831-10
		c-23.983,0-43.424-19.442-43.424-43.425S111.2,50.667,135.182,50.667z"/>
	<polygon style="fill:#38C6D9;" points="365.333,188.667 365.333,388.667 230.333,388.667 200.333,188.667 	"/>
	<rect x="95.333" y="188.667" style="fill:#71E2F0;" width="135" height="200"/>
	<polygon style="fill:#C2FBFF;" points="77.333,137.516 77.333,212.516 383.333,212.516 383.333,137.516 270.334,137.516 
		230.334,157.516 190.333,137.516 	"/>
	<rect x="200.333" y="97.438" style="fill:#940030;" width="60" height="50.079"/>
	<polygon style="fill:#C2001B;" points="270.333,137.517 270.333,317.907 230.333,295.367 210.333,210.667 230.333,137.517 	"/>
	<polygon style="fill:#FF0F27;" points="230.333,137.517 230.333,295.367 190.333,317.907 190.333,137.517 	"/>
</g>
<g>
</g>
<g>
</g>
<g>
</g>
<g>
</g>
<g>
</g>
<g>
</g>
<g>
</g>
<g>
</g>
<g>
</g>
<g>
</g>
<g>
</g>
<g>
</g>
<g>
</g>
<g>
</g>
<g>
</g>
</svg>
