<?xml version="1.0" encoding="iso-8859-1"?>
<!-- Generator: Adobe Illustrator 19.0.0, SVG Export Plug-In . SVG Version: 6.00 Build 0)  -->
<svg version="1.1" id="Layer_1" xmlns="http://www.w3.org/2000/svg" xmlns:xlink="http://www.w3.org/1999/xlink" x="0px" y="0px"
	 viewBox="0 0 512 512" style="enable-background:new 0 0 512 512;" xml:space="preserve">
<path style="fill:#E6563A;" d="M255.81,478.443c-3.867,0-7.733-1.341-10.856-4.018c-15.396-13.191-30.32-25.829-44.696-37.993
	C84.002,338.02,0,266.915,0,175.619C0,94.631,57.376,33.557,133.466,33.557c64.734,0,103.042,45.167,122.344,78.04
	c19.301-32.873,57.609-78.04,122.344-78.04c76.09,0,133.466,61.074,133.466,142.062c0,91.296-84.002,162.401-200.259,260.811
	c-14.375,12.165-29.299,24.802-44.696,37.993C263.543,477.102,259.677,478.443,255.81,478.443z"/>
<path style="fill:#D9472B;" d="M266.666,474.425c15.396-13.191,30.32-25.829,44.696-37.993
	C427.617,338.02,511.62,266.915,511.62,175.619c0-80.988-57.376-142.062-133.466-142.062c-64.734,0-103.042,45.167-122.344,78.04
	v366.847C259.677,478.443,263.543,477.102,266.666,474.425z"/>
<path style="fill:#FF80AC;" d="M378.154,478.443c-3.839,0-7.684-1.32-10.796-3.964c-7.532-6.392-14.831-12.512-21.864-18.405
	c-58.744-49.236-101.186-84.807-101.186-133.123c0-43.457,32.46-77.503,73.901-77.503c28.849,0,48.073,15.901,59.944,31.33
	c11.872-15.429,31.096-31.33,59.944-31.33c41.437,0,73.901,34.045,73.901,77.503c0,48.317-42.441,83.889-101.186,133.123
	c-7.033,5.893-14.332,12.013-21.864,18.405C385.838,477.123,381.993,478.443,378.154,478.443z"/>
<path style="fill:#F26D99;" d="M388.95,474.478c7.532-6.392,14.831-12.512,21.864-18.405C469.558,406.838,512,371.267,512,322.95
	c0-43.457-32.465-77.503-73.901-77.503c-28.849,0-48.073,15.901-59.944,31.33v201.665
	C381.993,478.443,385.838,477.123,388.95,474.478z"/>
<g>
</g>
<g>
</g>
<g>
</g>
<g>
</g>
<g>
</g>
<g>
</g>
<g>
</g>
<g>
</g>
<g>
</g>
<g>
</g>
<g>
</g>
<g>
</g>
<g>
</g>
<g>
</g>
<g>
</g>
</svg>
