<?xml version="1.0" encoding="iso-8859-1"?>
<!-- Generator: Adobe Illustrator 19.0.0, SVG Export Plug-In . SVG Version: 6.00 Build 0)  -->
<svg version="1.1" id="Layer_1" xmlns="http://www.w3.org/2000/svg" xmlns:xlink="http://www.w3.org/1999/xlink" x="0px" y="0px"
	 viewBox="0 0 512.001 512.001" style="enable-background:new 0 0 512.001 512.001;" xml:space="preserve">
<path style="fill:#E6563A;" d="M512,261.515c0-0.041-0.012-0.079-0.012-0.121c-0.001-0.043-0.012-0.086-0.012-0.129
	c-0.097-6.382-3.793-11.837-9.129-14.559c-44.672-30.375-70.714-70.661-91.62-103.15c-21.306-33.109-38.138-59.259-66.502-64.352
	c-18.45-3.317-37.823,3.204-60.931,20.535c-15.474,11.652-16.245,14.993-27.549,14.993c-11.304,0-12.075-3.341-27.572-15.01
	c-23.326-17.51-42.807-24.102-61.321-20.752c-28.223,5.11-44.86,31.144-65.926,64.101c-20.782,32.524-46.671,72.835-91.466,103.402
	C4.181,249.138,0,254.81,0,261.466c0,10.008,8.971,17.008,17.092,17.048c6.952,3.009,23.246,20.816,36.487,35.332
	c43.622,47.796,109.548,120.026,202.665,120.026s159.043-72.23,202.665-120.026c13.241-14.516,29.534-32.323,36.487-35.332
	C504.832,278.468,512,270.293,512,261.515z"/>
<path style="fill:#D9472B;" d="M458.91,313.846c13.241-14.516,29.534-32.323,36.487-35.332c9.435-0.046,16.604-8.221,16.604-16.999
	c0-0.041-0.012-0.079-0.012-0.121c-0.001-0.043-0.012-0.086-0.012-0.129c-0.097-6.382-3.793-11.837-9.129-14.559
	c-44.672-30.375-70.714-70.661-91.62-103.15c-21.306-33.109-38.138-59.259-66.502-64.352c-18.45-3.317-37.823,3.204-60.931,20.535
	c-15.474,11.652-16.245,14.993-27.549,14.993v319.139C349.363,433.872,415.289,361.642,458.91,313.846z"/>
<path style="fill:#A6673A;" d="M249.267,311.119c-14.065-11.457-48.074-35.958-91.577-45.427c-5.088-1.108-6.009-8.151-1.278-10.327
	c14.206-6.532,22.499-17.002,30.16-26.666c11.218-14.177,19.221-22.782,35.759-22.782c14.881,0,33.938,12.89,33.938,12.89
	s16.4-12.89,32.781-12.89c17.907,0,26.909,11.103,36.422,22.859c7.784,9.621,16.216,20.038,30.444,26.557
	c4.828,2.212,3.781,9.281-1.407,10.418c-43.395,9.51-77.272,33.932-91.293,45.354C259.12,314.443,253.366,314.458,249.267,311.119z"
	/>
<path style="fill:#99522E;" d="M256.244,313.616c2.462-0.004,4.925-0.843,6.973-2.511c14.021-11.421,47.896-35.845,91.293-45.354
	c5.187-1.136,6.234-8.205,1.406-10.418c-14.228-6.52-22.66-16.937-30.444-26.557c-9.513-11.755-18.514-22.859-36.422-22.859
	c-16.383,0-32.781,12.89-32.781,12.89s-0.017-0.011-0.023-0.016v94.825H256.244z"/>
<g>
</g>
<g>
</g>
<g>
</g>
<g>
</g>
<g>
</g>
<g>
</g>
<g>
</g>
<g>
</g>
<g>
</g>
<g>
</g>
<g>
</g>
<g>
</g>
<g>
</g>
<g>
</g>
<g>
</g>
</svg>
