<?xml version="1.0" encoding="iso-8859-1"?>
<!-- Generator: Adobe Illustrator 19.0.0, SVG Export Plug-In . SVG Version: 6.00 Build 0)  -->
<svg version="1.1" id="Layer_1" xmlns="http://www.w3.org/2000/svg" xmlns:xlink="http://www.w3.org/1999/xlink" x="0px" y="0px"
	 viewBox="0 0 460 460" style="enable-background:new 0 0 460 460;" xml:space="preserve">
<g>
	<path style="fill:#FFAD9E;" d="M230,0C102.974,0,0,102.975,0,230c0,99.382,63.032,184.042,151.3,216.183L441.763,140.09
		C406.756,57.744,325.121,0,230,0z"/>
	<path style="fill:#FF7F4F;" d="M460,230c0-31.904-6.5-62.289-18.242-89.908l-60.425-60.425L73.062,367.938l78.242,78.242
		C175.855,455.119,202.357,460,230,460C357.025,460,460,357.026,460,230z"/>
	<polygon style="fill:#273B7A;" points="221.333,79.667 181.333,309.667 381.333,299.667 381.333,219.667 361.333,189.667 
		381.333,159.667 381.333,79.667 	"/>
	<path style="fill:#366796;" d="M101.333,79.667c-22.056,0-40,17.944-40,40v220l160-36.41V79.667H101.333z"/>
	<path style="fill:#121149;" d="M291.333,159.667c-16.569,0-30,13.431-30,30c0,16.568,13.431,30,30,30h90v-60H291.333z"/>
	<path style="fill:#121149;" d="M101.333,379.667c-22.056,0-40-17.944-40-40s17.944-40,40-40h280v20h-20v60H101.333z"/>
	<path style="fill:#273B7A;" d="M341.333,339.667v20h-240c-11.047,0-20-8.953-20-20l90-13.333L341.333,339.667z"/>
	<path style="fill:#366796;" d="M341.333,319.667v20h-260c0-11.047,8.953-20,20-20H341.333z"/>
	<circle style="fill:#366796;" cx="291.333" cy="189.667" r="15"/>
</g>
<g>
</g>
<g>
</g>
<g>
</g>
<g>
</g>
<g>
</g>
<g>
</g>
<g>
</g>
<g>
</g>
<g>
</g>
<g>
</g>
<g>
</g>
<g>
</g>
<g>
</g>
<g>
</g>
<g>
</g>
</svg>
