<?xml version="1.0" encoding="iso-8859-1"?>
<!-- Generator: Adobe Illustrator 19.0.0, SVG Export Plug-In . SVG Version: 6.00 Build 0)  -->
<svg version="1.1" id="Layer_1" xmlns="http://www.w3.org/2000/svg" xmlns:xlink="http://www.w3.org/1999/xlink" x="0px" y="0px"
	 viewBox="0 0 512 512" style="enable-background:new 0 0 512 512;" xml:space="preserve">
<path style="fill:#EA3F31;" d="M355.598,207.636l-21.752-94.287C318.869,48.499,260.636,0,191.297,0l77.07,286.945h24.205
	c35.739,0,64.703-28.965,64.703-64.703C357.275,217.212,356.678,212.328,355.598,207.636z"/>
<path style="fill:#F16C60;" d="M316.337,207.636c0.821,4.692,1.272,9.576,1.272,14.606c0,35.739-22.044,64.703-49.242,64.703H90.022
	c-35.739,0-64.703-28.965-64.703-64.703c0-5.03,0.596-9.914,1.677-14.606l21.752-94.287C63.724,48.499,121.957,0,191.297,0
	c52.775,0,97.077,48.499,108.476,113.349L316.337,207.636z"/>
<path style="fill:#FFC5BF;" d="M250.97,50.874c-3.353,2.667-6.774,5.266-10.251,7.776l-49.422,228.296
	c62.149,0,112.527-50.379,112.527-112.527v-28.132C303.824,106.068,282.714,70.769,250.97,50.874z"/>
<path style="fill:#FFD8D4;" d="M270.066,146.286v28.132c0,62.149-35.266,112.527-78.769,112.527
	c-62.149,0-112.527-50.379-112.527-112.527v-28.132c0-11.793,1.812-23.169,5.176-33.848c58.458-2.037,112.426-21.684,156.773-53.788
	C258.611,79.276,270.066,110.873,270.066,146.286z"/>
<g>
	<path style="fill:#81433D;" d="M161.477,160.352c-3.675,0-6.801-2.348-7.959-5.626h-14.546c-4.661,0-8.44-3.779-8.44-8.44
		s3.779-8.44,8.44-8.44h22.505c4.661,0,8.44,3.779,8.44,8.44v5.626C169.916,156.573,166.138,160.352,161.477,160.352z"/>
	<path style="fill:#81433D;" d="M221.117,160.352c-4.661,0-8.44-3.779-8.44-8.44v-5.626c0-4.661,3.779-8.44,8.44-8.44h22.505
		c4.661,0,8.44,3.779,8.44,8.44s-3.779,8.44-8.44,8.44h-14.546C227.918,158.003,224.792,160.352,221.117,160.352z"/>
</g>
<path style="fill:#EA3F31;" d="M191.297,218.466c-11.882,0-22.539-7.521-26.519-18.717c-1.561-4.392,0.734-9.217,5.126-10.779
	c4.391-1.56,9.217,0.734,10.779,5.126c1.593,4.481,5.859,7.491,10.615,7.491c4.755,0,9.022-3.01,10.615-7.491
	c1.561-4.392,6.389-6.684,10.779-5.126c4.392,1.562,6.686,6.387,5.126,10.779C213.836,210.945,203.178,218.466,191.297,218.466z"/>
<g>
	<polygon style="fill:#708320;" points="408.43,487.807 371.341,487.807 382.593,512 408.43,512 	"/>
	<path style="fill:#708320;" d="M307.706,360.2H276.21L348.835,512h33.758C382.593,450.155,353.246,395.163,307.706,360.2z"/>
</g>
<path style="fill:#8A9D29;" d="M298.715,372.061L74.887,360.2C29.347,395.163,0,450.155,0,512h348.835
	C348.835,456.76,329.548,406.978,298.715,372.061z"/>
<path style="fill:#3C4F0D;" d="M279.259,342.084h-27.806v29.977h47.262c3.196-3.792,6.2-7.742,8.991-11.86
	C298.805,353.359,289.297,347.294,279.259,342.084z"/>
<path style="fill:#566916;" d="M273.937,349.116l-170.603-7.033c-10.037,5.21-19.546,11.275-28.447,18.117
	c25.33,37.258,68.057,61.778,116.41,61.778c43.019,0,81.582-19.411,107.419-49.917C291.12,363.464,282.827,355.767,273.937,349.116z
	"/>
<path style="fill:#FFC5BF;" d="M193.333,320.715l80.603,28.402c1.879-2.273,3.646-4.614,5.323-7.033
	C253.491,328.715,224.29,321.041,193.333,320.715z"/>
<path style="fill:#FFD8D4;" d="M193.333,320.715c29.538,0.461,57.119,10.791,80.603,28.402
	c-19.591,23.867-49.332,39.103-82.64,39.103c-36.47,0-68.676-18.263-87.963-46.136c26.331-13.661,56.252-21.38,87.963-21.38
	C191.972,320.703,192.658,320.703,193.333,320.715z"/>
<g>
	<circle style="fill:#708320;" cx="100.206" cy="469.802" r="8.44"/>
	<circle style="fill:#708320;" cx="66.447" cy="436.044" r="8.44"/>
</g>
<path style="fill:#FFD8D4;" d="M412.413,182.295V512C467.327,512,512,467.304,512,412.379V281.915
	C512,226.99,467.327,182.295,412.413,182.295z"/>
<path style="fill:#FFFFFF;" d="M378.666,506.115c10.544,3.803,21.909,5.885,33.747,5.885c36.301,0,65.829-44.696,65.829-99.621
	V293.247h-99.576V506.115z"/>
<path style="fill:#FFECEA;" d="M412.413,182.295c-54.913,0-99.587,44.696-99.587,99.621v130.464c0,43.087,27.49,79.872,65.84,93.735
	c38.338-13.875,65.817-50.637,65.817-93.702V281.915h33.758C478.242,226.99,448.715,182.295,412.413,182.295z"/>
<path style="fill:#FFC5BF;" d="M412.413,216.165v142.91c36.301,0,65.829-29.527,65.829-65.829v-11.253
	C478.242,245.704,448.715,216.165,412.413,216.165z"/>
<path style="fill:#FFD8D4;" d="M444.484,281.994v11.253c0,36.301-14.392,65.829-32.07,65.829c-36.301,0-65.829-29.527-65.829-65.829
	v-11.253c0-36.29,29.527-65.829,65.829-65.829C430.091,216.165,444.484,245.704,444.484,281.994z"/>
<g>
	<path style="fill:#81433D;" d="M391.596,296.062c-3.675,0-6.801-2.348-7.959-5.626h-3.294c-4.661,0-8.44-3.779-8.44-8.44
		s3.779-8.44,8.44-8.44h11.253c4.661,0,8.44,3.779,8.44,8.44v5.626C400.035,292.283,396.257,296.062,391.596,296.062z"/>
	<path style="fill:#81433D;" d="M433.231,296.062c-4.661,0-8.44-3.779-8.44-8.44v-5.626c0-4.661,3.779-8.44,8.44-8.44h11.253
		c4.661,0,8.44,3.779,8.44,8.44s-3.779,8.44-8.44,8.44h-3.294C440.032,293.714,436.906,296.062,433.231,296.062z"/>
</g>
<g>
</g>
<g>
</g>
<g>
</g>
<g>
</g>
<g>
</g>
<g>
</g>
<g>
</g>
<g>
</g>
<g>
</g>
<g>
</g>
<g>
</g>
<g>
</g>
<g>
</g>
<g>
</g>
<g>
</g>
</svg>
