<?xml version="1.0" encoding="iso-8859-1"?>
<!-- Generator: Adobe Illustrator 19.0.0, SVG Export Plug-In . SVG Version: 6.00 Build 0)  -->
<svg version="1.1" id="Layer_1" xmlns="http://www.w3.org/2000/svg" xmlns:xlink="http://www.w3.org/1999/xlink" x="0px" y="0px"
	 viewBox="0 0 505.731 505.731" style="enable-background:new 0 0 505.731 505.731;" xml:space="preserve">
<g>
	<polygon style="fill:#F8B64C;" points="503.641,404.091 2.09,481.413 2.09,393.642 503.641,317.364 	"/>
	<path style="fill:#F8B64C;" d="M2.09,267.209v66.873v2.09c0,0,0,0,1.045-1.045l7.314,7.314
		c14.629,11.494,38.661,7.314,54.335-8.359c14.629-15.673,38.661-18.808,53.29-7.314l0,0c14.629,11.494,38.661,7.314,54.335-8.359
		l0,0c7.314-7.314,16.718-12.539,27.167-14.629c9.404-1.045,19.853,0,27.167,6.269c14.629,11.494,38.661,7.314,54.335-8.359
		c7.314-7.314,16.718-12.539,27.167-14.629c9.404-1.045,19.853,0,27.167,6.269l0,0c14.629,11.494,38.661,7.314,54.335-8.359
		c14.629-15.673,38.661-18.808,53.29-8.359c15.673,10.449,39.706,8.359,54.335-8.359l8.359-8.359v-2.09v-66.873L2.09,267.209z"/>
</g>
<path style="fill:#F2F2F2;" d="M495.282,269.299c-14.629,15.673-38.661,18.808-54.335,8.359
	c-14.629-10.449-38.661-7.314-53.29,8.359c-14.629,15.673-38.661,18.808-54.335,8.359l0,0c-7.314-5.224-16.718-7.314-27.167-6.269
	c-10.449,1.045-19.853,6.269-27.167,14.629c-14.629,15.673-38.661,18.808-54.335,8.359c-7.314-5.224-16.718-7.314-27.167-6.269
	c-9.404,1.045-19.853,6.269-27.167,14.629l0,0c-14.629,15.673-38.661,18.808-54.335,8.359l0,0
	c-14.629-10.449-38.661-7.314-53.29,7.314c-15.673,15.673-39.706,19.853-54.335,8.359l-7.314-7.314c0,0,0,0-1.045,1.045v71.053
	l8.359,7.314c14.629,11.494,38.661,7.314,54.335-8.359c14.629-15.673,38.661-18.808,53.29-7.314l0,0
	c7.314,5.225,16.718,7.314,27.167,6.269c9.404-1.045,19.853-6.269,27.167-14.629l0,0c14.629-15.673,38.661-18.808,54.335-8.359
	c7.314,5.224,16.718,7.314,27.167,6.269c9.404-1.045,19.853-6.269,27.167-14.629c14.629-15.673,38.661-18.808,54.335-8.359l0,0
	c7.314,5.224,16.718,7.314,27.167,6.269c9.404-1.045,19.853-6.269,27.167-14.629c14.629-15.673,38.661-18.808,53.29-8.359
	c15.673,10.449,39.706,8.359,54.335-8.359l8.359-8.359V260.94L495.282,269.299z"/>
<path style="fill:#FFD15C;" d="M2.09,267.209L297.796,28.973c104.49-25.078,205.845,54.335,205.845,161.959l0,0"/>
<circle style="fill:#F1543F;" cx="370.939" cy="85.397" r="40.751"/>
<circle style="fill:#FFFFFF;" cx="352.131" cy="75.993" r="8.359"/>
<g>
	<circle style="fill:#F2F2F2;" cx="257.045" cy="188.842" r="8.359"/>
	<circle style="fill:#F2F2F2;" cx="195.396" cy="188.842" r="8.359"/>
	<circle style="fill:#F2F2F2;" cx="392.882" cy="188.842" r="8.359"/>
	<circle style="fill:#F2F2F2;" cx="298.841" cy="147.046" r="8.359"/>
	<circle style="fill:#F2F2F2;" cx="298.841" cy="97.936" r="8.359"/>
	<circle style="fill:#F2F2F2;" cx="174.498" cy="147.046" r="8.359"/>
	<circle style="fill:#F2F2F2;" cx="118.073" cy="203.47" r="8.359"/>
</g>
<g>
</g>
<g>
</g>
<g>
</g>
<g>
</g>
<g>
</g>
<g>
</g>
<g>
</g>
<g>
</g>
<g>
</g>
<g>
</g>
<g>
</g>
<g>
</g>
<g>
</g>
<g>
</g>
<g>
</g>
</svg>
