<?xml version="1.0" encoding="iso-8859-1"?>
<!-- Generator: Adobe Illustrator 19.0.0, SVG Export Plug-In . SVG Version: 6.00 Build 0)  -->
<svg version="1.1" id="Layer_1" xmlns="http://www.w3.org/2000/svg" xmlns:xlink="http://www.w3.org/1999/xlink" x="0px" y="0px"
	 viewBox="0 0 512 512" style="enable-background:new 0 0 512 512;" xml:space="preserve">
<path style="fill:#CCE8FF;" d="M256,512c-5.522,0-10.685-2.728-13.794-7.283L99.608,295.761
	c-21.478-31.479-32.826-68.315-32.826-106.544C66.783,84.881,151.663,0,256,0s189.217,84.881,189.217,189.217
	c0,38.229-11.348,75.065-32.826,106.544L269.794,504.717C266.685,509.272,261.522,512,256,512z"/>
<path style="fill:#B0DBFF;" d="M269.794,504.717l142.598-208.956c21.478-31.479,32.826-68.315,32.826-106.544
	C445.217,84.881,360.337,0,256,0v512C261.522,512,266.685,509.272,269.794,504.717z"/>
<path style="fill:#E6563A;" d="M256,311.854c-3.87,0-7.739-1.342-10.87-4.021c-12.914-11.07-24.989-20.858-36.021-29.804
	c-44.043-35.706-75.869-61.506-75.869-103.309c0-41.288,30.631-73.63,69.728-73.63c25.445,0,42.326,13.059,53.032,26.755
	c10.706-13.696,27.587-26.755,53.032-26.755c39.098,0,69.728,32.343,69.728,73.63c0,41.805-31.826,67.603-75.869,103.309
	c-11.032,8.945-23.109,18.734-36.021,29.804C263.739,310.511,259.87,311.854,256,311.854z"/>
<path style="fill:#D9472B;" d="M266.87,307.831c12.914-11.07,24.989-20.858,36.021-29.804c44.043-35.706,75.87-61.506,75.87-103.309
	c0-41.288-30.631-73.63-69.728-73.63c-25.445,0-42.326,13.059-53.032,26.755v184.011C259.87,311.854,263.739,310.511,266.87,307.831
	z"/>
<g>
</g>
<g>
</g>
<g>
</g>
<g>
</g>
<g>
</g>
<g>
</g>
<g>
</g>
<g>
</g>
<g>
</g>
<g>
</g>
<g>
</g>
<g>
</g>
<g>
</g>
<g>
</g>
<g>
</g>
</svg>
