<?xml version="1.0" encoding="iso-8859-1"?>
<!-- Generator: Adobe Illustrator 19.0.0, SVG Export Plug-In . SVG Version: 6.00 Build 0)  -->
<svg version="1.1" id="Layer_1" xmlns="http://www.w3.org/2000/svg" xmlns:xlink="http://www.w3.org/1999/xlink" x="0px" y="0px"
	 viewBox="0 0 460 460" style="enable-background:new 0 0 460 460;" xml:space="preserve">
<g>
	<path style="fill:#366796;" d="M230,0C102.974,0,0,102.974,0,230c0,123.448,97.257,224.181,219.328,229.757l240.429-240.429
		C454.181,97.257,353.448,0,230,0z"/>
	<path style="fill:#273B7A;" d="M187.927,428.344l31.402,31.402C222.867,459.907,226.422,460,230,460c127.026,0,230-102.975,230-230
		c0-3.578-0.093-7.134-0.255-10.671l-78.424-78.424L187.927,428.344z"/>
	<path style="fill:#38C6D9;" d="M381.321,234.95L187.927,428.343l-78.135-78.135L187.574,230l120.208-77.782
		c7.814,7.814,20.471,7.814,28.284,0c7.806-7.806,7.814-20.471,0-28.284v-14.142h14.142l31.113,31.113V234.95z"/>
	<path style="fill:#71E2F0;" d="M307.782,152.218l-197.99,197.99l-78.135-78.135L225.05,78.679h94.045l31.113,31.113l-14.142,14.142
		c-7.806-7.806-20.478-7.806-28.284,0C299.968,131.748,299.975,144.412,307.782,152.218z"/>
	<polygon style="fill:#C2FBFF;" points="357.633,230.354 187.927,400.059 123.934,336.066 194.645,237.071 293.64,166.36 	"/>
	
		<rect x="56.789" y="173.967" transform="matrix(-0.7071 0.7071 -0.7071 -0.7071 456.805 249.2186)" style="fill:#FFFFFF;" width="239.998" height="90.499"/>
	
		<rect x="80.501" y="212.928" transform="matrix(-0.7071 0.7071 -0.7071 -0.7071 465.7672 252.9296)" style="fill:#366796;" width="199.998" height="20"/>
	
		<rect x="108.785" y="241.213" transform="matrix(-0.7071 0.7071 -0.7071 -0.7071 534.0502 281.2144)" style="fill:#366796;" width="199.998" height="20"/>
	
		<rect x="151.713" y="304.852" transform="matrix(-0.7071 0.7071 -0.7071 -0.7071 566.9788 394.8536)" style="fill:#366796;" width="99.999" height="20"/>
	
		<rect x="364.743" y="9.954" transform="matrix(-0.7071 -0.7071 0.7071 -0.7071 579.4437 410.5188)" style="fill:#FFFFFF;" width="20.001" height="150.598"/>
</g>
<g>
</g>
<g>
</g>
<g>
</g>
<g>
</g>
<g>
</g>
<g>
</g>
<g>
</g>
<g>
</g>
<g>
</g>
<g>
</g>
<g>
</g>
<g>
</g>
<g>
</g>
<g>
</g>
<g>
</g>
</svg>
