<?xml version="1.0" encoding="iso-8859-1"?>
<!-- Generator: Adobe Illustrator 19.0.0, SVG Export Plug-In . SVG Version: 6.00 Build 0)  -->
<svg version="1.1" id="Layer_1" xmlns="http://www.w3.org/2000/svg" xmlns:xlink="http://www.w3.org/1999/xlink" x="0px" y="0px"
	 viewBox="0 0 460 460" style="enable-background:new 0 0 460 460;" xml:space="preserve">
<g>
	<path style="fill:#FF5419;" d="M230,0C102.974,0,0,102.975,0,230c0,98.106,61.425,181.867,147.915,214.92L444.92,147.915
		C411.867,61.425,328.107,0,230,0z"/>
	<path style="fill:#E03A00;" d="M460,230c0-28.92-5.353-56.586-15.097-82.082l-66.411-66.411L81.508,378.492l66.411,66.411
		C173.414,454.647,201.08,460,230,460C357.025,460,460,357.025,460,230z"/>
	
		<rect x="158.385" y="240.688" transform="matrix(-0.7071 -0.7071 0.7071 -0.7071 117.4624 601.8802)" style="fill:#C2FBFF;" width="50" height="71.849"/>
	<polygon style="fill:#61A2B3;" points="165.052,337.374 102.721,399.706 81.508,378.492 143.839,302.019 	"/>
	<polygon style="fill:#71E2F0;" points="150.91,309.09 81.508,378.492 60.294,357.279 122.626,294.948 	"/>
	
		<rect x="124.448" y="290.551" transform="matrix(-0.7071 -0.7071 0.7071 -0.7071 47.6005 630.8193)" style="fill:#FFFFFF;" width="59.999" height="30"/>
	<path style="fill:#38C6D9;" d="M378.492,273.735c-53.082,53.082-139.145,53.082-192.227,0l28.284-163.943l163.943-28.284
		C431.574,134.59,431.574,220.653,378.492,273.735z"/>
	<path style="fill:#71E2F0;" d="M186.265,81.508c-53.082,53.082-53.082,139.145,0,192.227L378.492,81.508
		C325.41,28.426,239.347,28.426,186.265,81.508z"/>
	<path style="fill:#FFFFFF;" d="M364.35,259.585l-7.071-156.864c-80.61-60.811-156.864-7.071-156.864-7.071
		c-45.206,45.199-45.206,118.744-0.007,163.943C245.601,304.786,319.13,304.79,364.35,259.585z"/>
	<path style="fill:#C2FBFF;" d="M214.557,109.792c37.399-37.399,98.252-37.399,135.651,0L214.55,245.45
		c37.399,37.399,98.252,37.399,135.658-0.007l14.142,14.142c45.199-45.192,45.199-118.737,0-163.936
		c-45.195-45.195-118.728-45.198-163.927-0.009C200.415,95.65,214.557,109.792,214.557,109.792z"/>
</g>
<g>
</g>
<g>
</g>
<g>
</g>
<g>
</g>
<g>
</g>
<g>
</g>
<g>
</g>
<g>
</g>
<g>
</g>
<g>
</g>
<g>
</g>
<g>
</g>
<g>
</g>
<g>
</g>
<g>
</g>
</svg>
