<?xml version="1.0" encoding="iso-8859-1"?>
<!-- Generator: Adobe Illustrator 19.0.0, SVG Export Plug-In . SVG Version: 6.00 Build 0)  -->
<svg version="1.1" id="Layer_1" xmlns="http://www.w3.org/2000/svg" xmlns:xlink="http://www.w3.org/1999/xlink" x="0px" y="0px"
	 viewBox="0 0 460 460" style="enable-background:new 0 0 460 460;" xml:space="preserve">
<g>
	<path style="fill:#C2FBFF;" d="M230,0C102.975,0,0,102.975,0,230c0,98.126,61.449,181.9,147.966,214.939l296.978-296.963
		C411.906,61.454,328.13,0,230,0z"/>
	<path style="fill:#71E2F0;" d="M460,230c0-28.899-5.345-56.546-15.075-82.025l-66.449-66.449L230,71L83.525,83.525L71,230
		l10.525,148.475l66.45,66.45C173.455,454.655,201.101,460,230,460C357.025,460,460,357.025,460,230z"/>
	<path style="fill:#5488A8;" d="M399,131v198c0,38.6-31.4,70-70,70h-99l-20-20h119c27.57,0,50-22.43,50-50V131
		c0-27.57-22.43-50-50-50H210l20-20h99C367.6,61,399,92.4,399,131z"/>
	<path style="fill:#61A2B3;" d="M230,379v20h-99c-38.6,0-70-31.4-70-70V131c0-38.6,31.4-70,70-70h99v20h-99c-27.57,0-50,22.43-50,50
		v198c0,27.57,22.43,50,50,50H230z"/>
	<path style="fill:#FF0F27;" d="M303.456,260.427l82.638,34.23c16.547-39.948,17.855-86.209,0-129.313l-82.638,34.23
		C311.858,219.858,311.243,241.627,303.456,260.427z"/>
	<path style="fill:#C2FBFF;" d="M260.427,156.544c18.799,7.787,34.628,22.745,43.03,43.03l82.638-34.23
		c-17.854-43.105-51.49-74.891-91.438-91.438L260.427,156.544z"/>
	<path style="fill:#C2FBFF;" d="M303.456,260.427c-7.787,18.799-22.745,34.628-43.03,43.03l34.23,82.638
		c43.104-17.854,74.891-51.49,91.438-91.438L303.456,260.427z"/>
	<path style="fill:#FF6161;" d="M199.573,303.456l-34.23,82.638c20.333,8.422,42.302,12.886,64.657,12.895v-89.472
		C219.48,309.513,209.142,307.419,199.573,303.456z"/>
	<path style="fill:#FF0F27;" d="M260.427,303.456c-9.96,4.126-20.278,6.065-30.427,6.061v89.472
		c21.566,0.008,43.491-4.128,64.657-12.895L260.427,303.456z"/>
	<path style="fill:#FFFFFF;" d="M73.905,165.344l82.638,34.23c7.787-18.799,22.745-34.628,43.03-43.03l-34.23-82.638
		C122.239,91.76,90.452,125.395,73.905,165.344z"/>
	<path style="fill:#FF6161;" d="M165.343,73.905l34.23,82.638c9.96-4.126,20.278-6.065,30.427-6.061V61.01
		C208.434,61.002,186.509,65.138,165.343,73.905z"/>
	<path style="fill:#FF0F27;" d="M230,61.01v89.472c10.52,0.004,20.858,2.098,30.427,6.061l34.23-82.638
		C274.324,65.483,252.355,61.019,230,61.01z"/>
	<path style="fill:#FF6161;" d="M156.544,199.573l-82.638-34.23c-16.547,39.948-17.855,86.209,0,129.313l82.638-34.23
		C148.142,240.142,148.757,218.373,156.544,199.573z"/>
	<path style="fill:#FFFFFF;" d="M73.905,294.657c17.854,43.104,51.49,74.891,91.438,91.438l34.23-82.638
		c-18.799-7.787-34.628-22.745-43.03-43.03L73.905,294.657z"/>
</g>
<g>
</g>
<g>
</g>
<g>
</g>
<g>
</g>
<g>
</g>
<g>
</g>
<g>
</g>
<g>
</g>
<g>
</g>
<g>
</g>
<g>
</g>
<g>
</g>
<g>
</g>
<g>
</g>
<g>
</g>
</svg>
