<?xml version="1.0" encoding="iso-8859-1"?>
<!-- Generator: Adobe Illustrator 16.0.0, SVG Export Plug-In . SVG Version: 6.00 Build 0)  -->
<!DOCTYPE svg PUBLIC "-//W3C//DTD SVG 1.1//EN" "http://www.w3.org/Graphics/SVG/1.1/DTD/svg11.dtd">
<svg version="1.1" id="Capa_1" xmlns="http://www.w3.org/2000/svg" xmlns:xlink="http://www.w3.org/1999/xlink" x="0px" y="0px"
	 width="512px" height="512px" viewBox="0 0 512 512" style="enable-background:new 0 0 512 512;" xml:space="preserve">
<g>
	<path d="M421.875,215.999L301.719,15.749c-4.562-7.563-14.359-10-21.953-5.469c-7.578,4.531-10.031,14.375-5.483,21.969
		l110.28,183.75H127.469l110.25-183.75c4.547-7.594,2.094-17.438-5.484-21.969c-7.578-4.531-17.422-2.094-21.953,5.469
		L90.141,215.999H0v64h32v192c0,17.688,14.328,32,32,32h384c17.688,0,32-14.312,32-32v-192h32v-64H421.875z M80,279.998
		c-8.844,0-16-7.156-16-16c0-8.843,7.156-16,16-16s16,7.156,16,16C96,272.842,88.844,279.998,80,279.998z M160,439.998H96v-128h64
		V439.998z M288,439.998h-64v-128h64V439.998z M416,439.998h-64v-128h64V439.998z M432,279.998c-8.844,0-16-7.156-16-16
		c0-8.843,7.156-16,16-16s16,7.156,16,16C448,272.842,440.844,279.998,432,279.998z"/>
</g>
<g>
</g>
<g>
</g>
<g>
</g>
<g>
</g>
<g>
</g>
<g>
</g>
<g>
</g>
<g>
</g>
<g>
</g>
<g>
</g>
<g>
</g>
<g>
</g>
<g>
</g>
<g>
</g>
<g>
</g>
</svg>
