<?xml version="1.0" encoding="iso-8859-1"?>
<!-- Generator: Adobe Illustrator 19.0.0, SVG Export Plug-In . SVG Version: 6.00 Build 0)  -->
<svg version="1.1" id="Layer_1" xmlns="http://www.w3.org/2000/svg" xmlns:xlink="http://www.w3.org/1999/xlink" x="0px" y="0px"
	 viewBox="0 0 460 460" style="enable-background:new 0 0 460 460;" xml:space="preserve">
<g>
	<path style="fill:#FF7F4F;" d="M230,0C102.974,0,0,102.975,0,230c0,110.322,77.674,202.503,181.318,224.838l273.52-273.521
		C432.503,77.674,340.322,0,230,0z"/>
	<path style="fill:#FF5419;" d="M460,230c0-16.704-1.797-32.986-5.179-48.679L426,152.5l-392,155l147.321,147.321
		C197.014,458.203,213.296,460,230,460C357.026,460,460,357.025,460,230z"/>
	<polygon style="fill:#FFFFFF;" points="302.533,178.631 229.604,105.702 157.467,177.84 143.324,163.698 229.604,77.418 
		316.676,164.489 	"/>
	<polygon style="fill:#71E2F0;" points="426,152.5 426,182.5 219.6,192.5 229.6,152.5 	"/>
	<polygon style="fill:#C2FBFF;" points="229.6,152.5 229.6,202.5 34,182.5 34,152.5 	"/>
	<polygon style="fill:#38C6D9;" points="426,182.5 426,307.5 229.6,307.5 209.6,182.5 	"/>
	<rect x="34" y="182.5" style="fill:#71E2F0;" width="195.6" height="125"/>
	<path style="fill:#FFFFFF;" d="M133.747,275.042c-4.68,0-8.926-0.914-12.735-2.745c-3.811-1.83-7.08-4.26-9.81-7.29
		c-2.73-3.029-4.846-6.494-6.345-10.395c-1.5-3.899-2.25-7.889-2.25-11.97c0-4.259,0.794-8.339,2.385-12.24
		c1.589-3.899,3.78-7.349,6.57-10.35c2.79-3,6.104-5.384,9.945-7.155c3.839-1.769,8.01-2.655,12.51-2.655
		c4.619,0,8.834,0.945,12.645,2.835c3.809,1.89,7.065,4.365,9.765,7.425s4.8,6.541,6.3,10.44c1.499,3.901,2.25,7.861,2.25,11.88
		c0,4.261-0.781,8.325-2.34,12.195c-1.561,3.87-3.721,7.29-6.48,10.26c-2.76,2.97-6.061,5.341-9.9,7.11
		C142.416,274.157,138.247,275.042,133.747,275.042z M115.207,242.642c0,2.761,0.419,5.431,1.26,8.01
		c0.84,2.581,2.055,4.86,3.645,6.84c1.589,1.98,3.54,3.571,5.85,4.77c2.309,1.201,4.935,1.8,7.875,1.8c3,0,5.654-0.615,7.965-1.845
		c2.309-1.229,4.26-2.865,5.85-4.905c1.589-2.039,2.79-4.334,3.6-6.885c0.81-2.549,1.215-5.144,1.215-7.785
		c0-2.759-0.436-5.429-1.305-8.01c-0.871-2.579-2.101-4.86-3.69-6.84c-1.59-1.98-3.541-3.555-5.85-4.725
		c-2.311-1.17-4.905-1.755-7.785-1.755c-3.001,0-5.67,0.616-8.01,1.845c-2.34,1.23-4.29,2.851-5.85,4.86
		c-1.561,2.011-2.745,4.291-3.555,6.84C115.611,237.408,115.207,240.002,115.207,242.642z"/>
	<path style="fill:#FFFFFF;" d="M179.016,274.592v-63.9h27.09c2.939,0,5.654,0.616,8.145,1.845c2.489,1.23,4.635,2.851,6.435,4.86
		c1.8,2.011,3.209,4.291,4.23,6.84c1.02,2.551,1.53,5.116,1.53,7.695c0,2.7-0.481,5.326-1.44,7.875
		c-0.96,2.551-2.311,4.815-4.05,6.795c-1.741,1.98-3.84,3.571-6.3,4.77c-2.461,1.201-5.161,1.8-8.1,1.8h-15.12v21.42
		L179.016,274.592L179.016,274.592z M191.436,242.282h14.4c2.28,0,4.185-0.93,5.715-2.79c1.53-1.859,2.295-4.379,2.295-7.56
		c0-1.62-0.241-3.074-0.72-4.365c-0.481-1.29-1.111-2.385-1.89-3.285c-0.78-0.9-1.696-1.575-2.745-2.025
		c-1.05-0.45-2.115-0.675-3.195-0.675h-13.86L191.436,242.282L191.436,242.282z"/>
	<path style="fill:#FFFFFF;" d="M283.955,263.702v10.89h-44.37v-63.9h43.56v10.89h-31.14v15.39h26.91v10.08h-26.91v16.65
		L283.955,263.702L283.955,263.702z"/>
	<path style="fill:#FFFFFF;" d="M310.595,233.642v40.95h-12.42v-63.9h9.63l33.3,41.94v-41.85h12.42v63.81h-10.08L310.595,233.642z"
		/>
</g>
<g>
</g>
<g>
</g>
<g>
</g>
<g>
</g>
<g>
</g>
<g>
</g>
<g>
</g>
<g>
</g>
<g>
</g>
<g>
</g>
<g>
</g>
<g>
</g>
<g>
</g>
<g>
</g>
<g>
</g>
</svg>
