<?xml version="1.0" encoding="iso-8859-1"?>
<!-- Generator: Adobe Illustrator 19.0.0, SVG Export Plug-In . SVG Version: 6.00 Build 0)  -->
<svg version="1.1" id="Layer_1" xmlns="http://www.w3.org/2000/svg" xmlns:xlink="http://www.w3.org/1999/xlink" x="0px" y="0px"
	 viewBox="0 0 460 460" style="enable-background:new 0 0 460 460;" xml:space="preserve">
<g>
	<path style="fill:#FFEDB5;" d="M230,0C102.974,0,0,102.975,0,230c0,107.554,73.824,197.865,173.565,223.025l285.248-246.542
		C447.034,90.505,349.086,0,230,0z"/>
	<path style="fill:#FEE187;" d="M458.846,206.855L420.22,168.23l-32.719,19.271L230,30L112.41,391.86l61.154,61.153
		C191.622,457.569,210.527,460,230,460c127.026,0,230-102.975,230-230C460,222.188,459.606,214.468,458.846,206.855z"/>
	<polygon style="fill:#D48B07;" points="420.22,168.23 328.21,261.97 347.54,391.86 230,333.29 200,214.999 230,30 290.71,146.47 	
		"/>
	<polygon style="fill:#FFC61B;" points="230,30 230,333.29 112.41,391.86 131.79,261.97 39.78,168.23 169.29,146.47 	"/>
	<polygon style="fill:#FFC61B;" points="358.5,188.28 296.34,251.61 309.39,339.33 230,299.78 200,221.002 230,94.91 271,173.58 	
		"/>
	<polygon style="fill:#FEE187;" points="230,94.91 230,299.78 150.58,339.33 163.67,251.61 101.5,188.28 189,173.58 	"/>
</g>
<g>
</g>
<g>
</g>
<g>
</g>
<g>
</g>
<g>
</g>
<g>
</g>
<g>
</g>
<g>
</g>
<g>
</g>
<g>
</g>
<g>
</g>
<g>
</g>
<g>
</g>
<g>
</g>
<g>
</g>
</svg>
